<?xml version="1.0" encoding="UTF-8" standalone="no"?>
<!-- Created with Inkscape (http://www.inkscape.org/) -->

<svg
   width="210mm"
   height="297mm"
   viewBox="0 0 210 297"
   version="1.1"
   id="svg5"
   xml:space="preserve"
   sodipodi:docname="CUBI_domain.svg"
   inkscape:export-filename="..\..\Inkscape\Updated_pdf\CUBI_domain.pdf"
   inkscape:export-xdpi="96"
   inkscape:export-ydpi="96"
   inkscape:version="1.2.2 (732a01da63, 2022-12-09)"
   xmlns:inkscape="http://www.inkscape.org/namespaces/inkscape"
   xmlns:sodipodi="http://sodipodi.sourceforge.net/DTD/sodipodi-0.dtd"
   xmlns="http://www.w3.org/2000/svg"
   xmlns:svg="http://www.w3.org/2000/svg"><sodipodi:namedview
     id="namedview7"
     pagecolor="#ffffff"
     bordercolor="#000000"
     borderopacity="0.25"
     inkscape:showpageshadow="2"
     inkscape:pageopacity="0.0"
     inkscape:pagecheckerboard="0"
     inkscape:deskcolor="#d1d1d1"
     inkscape:document-units="mm"
     showgrid="false"
     inkscape:zoom="0.70710678"
     inkscape:cx="4536.7971"
     inkscape:cy="453.96255"
     inkscape:window-width="1920"
     inkscape:window-height="1009"
     inkscape:window-x="-8"
     inkscape:window-y="-8"
     inkscape:window-maximized="1"
     inkscape:current-layer="g21876"><inkscape:page
       x="0"
       y="0"
       width="210"
       height="297"
       id="page538" /><inkscape:page
       x="220"
       y="0"
       width="381"
       height="254.00002"
       id="page540" /><inkscape:page
       x="611"
       y="0"
       width="381"
       height="254.00002"
       id="page1520" /><inkscape:page
       x="1002"
       y="0"
       width="381"
       height="254.00002"
       id="page6560" /></sodipodi:namedview><defs
     id="defs2"><marker
   style="overflow:visible"
   id="marker8563"
   refX="0"
   refY="0"
   orient="auto-start-reverse"
   inkscape:stockid="Arrow1L"
   markerWidth="8.75"
   markerHeight="5"
   viewBox="0 0 8.75 5"
   inkscape:isstock="true"
   inkscape:collect="always"
   preserveAspectRatio="xMidYMid"><path
     style="fill:context-stroke;fill-rule:evenodd;stroke:none"
     d="M 0,0 5,-5 -12.5,0 5,5 Z"
     id="path8561"
     transform="scale(-0.5)" /></marker><marker
   style="overflow:visible"
   id="marker8471"
   refX="0"
   refY="0"
   orient="auto-start-reverse"
   inkscape:stockid="Arrow1L"
   markerWidth="8.75"
   markerHeight="5"
   viewBox="0 0 8.75 5"
   inkscape:isstock="true"
   inkscape:collect="always"
   preserveAspectRatio="xMidYMid"><path
     style="fill:context-stroke;fill-rule:evenodd;stroke:none"
     d="M 0,0 5,-5 -12.5,0 5,5 Z"
     id="path8469"
     transform="scale(-0.5)" /></marker><inkscape:path-effect
   effect="bspline"
   id="path-effect7633"
   is_visible="true"
   lpeversion="1"
   weight="33.333333"
   steps="2"
   helper_size="0"
   apply_no_weight="true"
   apply_with_weight="true"
   only_selected="false" /><inkscape:path-effect
   effect="bspline"
   id="path-effect3585"
   is_visible="true"
   lpeversion="1"
   weight="33.333333"
   steps="2"
   helper_size="0"
   apply_no_weight="true"
   apply_with_weight="true"
   only_selected="false" /><marker
   style="overflow:visible"
   id="marker3443"
   refX="0"
   refY="0"
   orient="auto-start-reverse"
   inkscape:stockid="Arrow1L"
   markerWidth="8.75"
   markerHeight="5"
   viewBox="0 0 8.75 5"
   inkscape:isstock="true"
   inkscape:collect="always"
   preserveAspectRatio="xMidYMid"><path
     style="fill:context-stroke;fill-rule:evenodd;stroke:none"
     d="M 0,0 5,-5 -12.5,0 5,5 Z"
     id="path3441"
     transform="scale(-0.5)" /></marker><marker
   style="overflow:visible"
   id="Arrow1L"
   refX="0"
   refY="0"
   orient="auto-start-reverse"
   inkscape:stockid="Arrow1L"
   markerWidth="8.75"
   markerHeight="5"
   viewBox="0 0 8.75 5"
   inkscape:isstock="true"
   inkscape:collect="always"
   preserveAspectRatio="xMidYMid"><path
     style="fill:context-stroke;fill-rule:evenodd;stroke:none"
     d="M 0,0 5,-5 -12.5,0 5,5 Z"
     id="arrow1L"
     transform="scale(-0.5)" /></marker><inkscape:path-effect
   effect="bspline"
   id="path-effect3421"
   is_visible="true"
   lpeversion="1"
   weight="33.333333"
   steps="2"
   helper_size="0"
   apply_no_weight="true"
   apply_with_weight="true"
   only_selected="false" /><clipPath
   clipPathUnits="userSpaceOnUse"
   id="clipPath148"><path
     d="M 190.8,10.8 H 889.2 V 709.2 H 190.8 Z"
     id="path146" /></clipPath><clipPath
   clipPathUnits="userSpaceOnUse"
   id="clipPath158"><path
     d="M 190.8,10.8 H 889.2 V 709.2 H 190.8 Z"
     id="path156" /></clipPath><clipPath
   clipPathUnits="userSpaceOnUse"
   id="clipPath168"><path
     d="M 190.8,10.8 H 889.2 V 709.2 H 190.8 Z"
     id="path166" /></clipPath><clipPath
   clipPathUnits="userSpaceOnUse"
   id="clipPath178"><path
     d="M 190.8,10.8 H 889.2 V 709.2 H 190.8 Z"
     id="path176" /></clipPath><clipPath
   clipPathUnits="userSpaceOnUse"
   id="clipPath188"><path
     d="M 190.8,10.8 H 889.2 V 709.2 H 190.8 Z"
     id="path186" /></clipPath><clipPath
   clipPathUnits="userSpaceOnUse"
   id="clipPath198"><path
     d="M 190.8,10.8 H 889.2 V 709.2 H 190.8 Z"
     id="path196" /></clipPath><clipPath
   clipPathUnits="userSpaceOnUse"
   id="clipPath208"><path
     d="M 190.8,10.8 H 889.2 V 709.2 H 190.8 Z"
     id="path206" /></clipPath><clipPath
   clipPathUnits="userSpaceOnUse"
   id="clipPath218"><path
     d="M 190.8,10.8 H 889.2 V 709.2 H 190.8 Z"
     id="path216" /></clipPath><clipPath
   clipPathUnits="userSpaceOnUse"
   id="clipPath228"><path
     d="M 190.8,10.8 H 889.2 V 709.2 H 190.8 Z"
     id="path226" /></clipPath><clipPath
   clipPathUnits="userSpaceOnUse"
   id="clipPath238"><path
     d="M 190.8,10.8 H 889.2 V 709.2 H 190.8 Z"
     id="path236" /></clipPath><clipPath
   clipPathUnits="userSpaceOnUse"
   id="clipPath248"><path
     d="M 190.8,10.8 H 889.2 V 709.2 H 190.8 Z"
     id="path246" /></clipPath><clipPath
   clipPathUnits="userSpaceOnUse"
   id="clipPath258"><path
     d="M 190.8,10.8 H 889.2 V 709.2 H 190.8 Z"
     id="path256" /></clipPath><clipPath
   clipPathUnits="userSpaceOnUse"
   id="clipPath268"><path
     d="M 190.8,10.8 H 889.2 V 709.2 H 190.8 Z"
     id="path266" /></clipPath><clipPath
   clipPathUnits="userSpaceOnUse"
   id="clipPath278"><path
     d="M 190.8,10.8 H 889.2 V 709.2 H 190.8 Z"
     id="path276" /></clipPath><clipPath
   clipPathUnits="userSpaceOnUse"
   id="clipPath288"><path
     d="M 190.8,10.8 H 889.2 V 709.2 H 190.8 Z"
     id="path286" /></clipPath><clipPath
   clipPathUnits="userSpaceOnUse"
   id="clipPath298"><path
     d="M 190.8,10.8 H 889.2 V 709.2 H 190.8 Z"
     id="path296" /></clipPath><clipPath
   clipPathUnits="userSpaceOnUse"
   id="clipPath308"><path
     d="M 190.8,10.8 H 889.2 V 709.2 H 190.8 Z"
     id="path306" /></clipPath><clipPath
   clipPathUnits="userSpaceOnUse"
   id="clipPath318"><path
     d="M 190.8,10.8 H 889.2 V 709.2 H 190.8 Z"
     id="path316" /></clipPath><clipPath
   clipPathUnits="userSpaceOnUse"
   id="clipPath328"><path
     d="M 190.8,10.8 H 889.2 V 709.2 H 190.8 Z"
     id="path326" /></clipPath><clipPath
   clipPathUnits="userSpaceOnUse"
   id="clipPath338"><path
     d="M 190.8,10.8 H 889.2 V 709.2 H 190.8 Z"
     id="path336" /></clipPath><clipPath
   clipPathUnits="userSpaceOnUse"
   id="clipPath348"><path
     d="M 190.8,10.8 H 889.2 V 709.2 H 190.8 Z"
     id="path346" /></clipPath><clipPath
   clipPathUnits="userSpaceOnUse"
   id="clipPath358"><path
     d="M 190.8,10.8 H 889.2 V 709.2 H 190.8 Z"
     id="path356" /></clipPath><clipPath
   clipPathUnits="userSpaceOnUse"
   id="clipPath368"><path
     d="M 190.8,10.8 H 889.2 V 709.2 H 190.8 Z"
     id="path366" /></clipPath><clipPath
   clipPathUnits="userSpaceOnUse"
   id="clipPath378"><path
     d="M 190.8,10.8 H 889.2 V 709.2 H 190.8 Z"
     id="path376" /></clipPath><clipPath
   clipPathUnits="userSpaceOnUse"
   id="clipPath388"><path
     d="M 190.8,10.8 H 889.2 V 709.2 H 190.8 Z"
     id="path386" /></clipPath><clipPath
   clipPathUnits="userSpaceOnUse"
   id="clipPath398"><path
     d="M 190.8,10.8 H 889.2 V 709.2 H 190.8 Z"
     id="path396" /></clipPath><clipPath
   clipPathUnits="userSpaceOnUse"
   id="clipPath408"><path
     d="M 190.8,10.8 H 889.2 V 709.2 H 190.8 Z"
     id="path406" /></clipPath><clipPath
   clipPathUnits="userSpaceOnUse"
   id="clipPath418"><path
     d="M 190.8,10.8 H 889.2 V 709.2 H 190.8 Z"
     id="path416" /></clipPath><clipPath
   clipPathUnits="userSpaceOnUse"
   id="clipPath428"><path
     d="M 190.8,10.8 H 889.2 V 709.2 H 190.8 Z"
     id="path426" /></clipPath><clipPath
   clipPathUnits="userSpaceOnUse"
   id="clipPath438"><path
     d="M 190.8,10.8 H 889.2 V 709.2 H 190.8 Z"
     id="path436" /></clipPath><clipPath
   clipPathUnits="userSpaceOnUse"
   id="clipPath448"><path
     d="M 190.8,10.8 H 889.2 V 709.2 H 190.8 Z"
     id="path446" /></clipPath><clipPath
   clipPathUnits="userSpaceOnUse"
   id="clipPath458"><path
     d="M 190.8,10.8 H 889.2 V 709.2 H 190.8 Z"
     id="path456" /></clipPath><clipPath
   clipPathUnits="userSpaceOnUse"
   id="clipPath468"><path
     d="M 190.8,10.8 H 889.2 V 709.2 H 190.8 Z"
     id="path466" /></clipPath><clipPath
   clipPathUnits="userSpaceOnUse"
   id="clipPath1130"><path
     d="M 190.8,10.8 H 889.2 V 709.2 H 190.8 Z"
     id="path1128" /></clipPath><clipPath
   clipPathUnits="userSpaceOnUse"
   id="clipPath1140"><path
     d="M 190.8,10.8 H 889.2 V 709.2 H 190.8 Z"
     id="path1138" /></clipPath><clipPath
   clipPathUnits="userSpaceOnUse"
   id="clipPath1150"><path
     d="M 190.8,10.8 H 889.2 V 709.2 H 190.8 Z"
     id="path1148" /></clipPath><clipPath
   clipPathUnits="userSpaceOnUse"
   id="clipPath1160"><path
     d="M 190.8,10.8 H 889.2 V 709.2 H 190.8 Z"
     id="path1158" /></clipPath><clipPath
   clipPathUnits="userSpaceOnUse"
   id="clipPath1170"><path
     d="M 190.8,10.8 H 889.2 V 709.2 H 190.8 Z"
     id="path1168" /></clipPath><clipPath
   clipPathUnits="userSpaceOnUse"
   id="clipPath1180"><path
     d="M 190.8,10.8 H 889.2 V 709.2 H 190.8 Z"
     id="path1178" /></clipPath><clipPath
   clipPathUnits="userSpaceOnUse"
   id="clipPath1190"><path
     d="M 190.8,10.8 H 889.2 V 709.2 H 190.8 Z"
     id="path1188" /></clipPath><clipPath
   clipPathUnits="userSpaceOnUse"
   id="clipPath1200"><path
     d="M 190.8,10.8 H 889.2 V 709.2 H 190.8 Z"
     id="path1198" /></clipPath><clipPath
   clipPathUnits="userSpaceOnUse"
   id="clipPath1210"><path
     d="M 190.8,10.8 H 889.2 V 709.2 H 190.8 Z"
     id="path1208" /></clipPath><clipPath
   clipPathUnits="userSpaceOnUse"
   id="clipPath1220"><path
     d="M 190.8,10.8 H 889.2 V 709.2 H 190.8 Z"
     id="path1218" /></clipPath><clipPath
   clipPathUnits="userSpaceOnUse"
   id="clipPath1230"><path
     d="M 190.8,10.8 H 889.2 V 709.2 H 190.8 Z"
     id="path1228" /></clipPath><clipPath
   clipPathUnits="userSpaceOnUse"
   id="clipPath1240"><path
     d="M 190.8,10.8 H 889.2 V 709.2 H 190.8 Z"
     id="path1238" /></clipPath><clipPath
   clipPathUnits="userSpaceOnUse"
   id="clipPath1250"><path
     d="M 190.8,10.8 H 889.2 V 709.2 H 190.8 Z"
     id="path1248" /></clipPath><clipPath
   clipPathUnits="userSpaceOnUse"
   id="clipPath1260"><path
     d="M 190.8,10.8 H 889.2 V 709.2 H 190.8 Z"
     id="path1258" /></clipPath><clipPath
   clipPathUnits="userSpaceOnUse"
   id="clipPath1270"><path
     d="M 190.8,10.8 H 889.2 V 709.2 H 190.8 Z"
     id="path1268" /></clipPath><clipPath
   clipPathUnits="userSpaceOnUse"
   id="clipPath1280"><path
     d="M 190.8,10.8 H 889.2 V 709.2 H 190.8 Z"
     id="path1278" /></clipPath><clipPath
   clipPathUnits="userSpaceOnUse"
   id="clipPath1290"><path
     d="M 190.8,10.8 H 889.2 V 709.2 H 190.8 Z"
     id="path1288" /></clipPath><clipPath
   clipPathUnits="userSpaceOnUse"
   id="clipPath1300"><path
     d="M 190.8,10.8 H 889.2 V 709.2 H 190.8 Z"
     id="path1298" /></clipPath><clipPath
   clipPathUnits="userSpaceOnUse"
   id="clipPath1310"><path
     d="M 190.8,10.8 H 889.2 V 709.2 H 190.8 Z"
     id="path1308" /></clipPath><clipPath
   clipPathUnits="userSpaceOnUse"
   id="clipPath1320"><path
     d="M 190.8,10.8 H 889.2 V 709.2 H 190.8 Z"
     id="path1318" /></clipPath><clipPath
   clipPathUnits="userSpaceOnUse"
   id="clipPath1330"><path
     d="M 190.8,10.8 H 889.2 V 709.2 H 190.8 Z"
     id="path1328" /></clipPath><clipPath
   clipPathUnits="userSpaceOnUse"
   id="clipPath1340"><path
     d="M 190.8,10.8 H 889.2 V 709.2 H 190.8 Z"
     id="path1338" /></clipPath><clipPath
   clipPathUnits="userSpaceOnUse"
   id="clipPath1350"><path
     d="M 190.8,10.8 H 889.2 V 709.2 H 190.8 Z"
     id="path1348" /></clipPath><clipPath
   clipPathUnits="userSpaceOnUse"
   id="clipPath1360"><path
     d="M 190.8,10.8 H 889.2 V 709.2 H 190.8 Z"
     id="path1358" /></clipPath><clipPath
   clipPathUnits="userSpaceOnUse"
   id="clipPath1370"><path
     d="M 190.8,10.8 H 889.2 V 709.2 H 190.8 Z"
     id="path1368" /></clipPath><clipPath
   clipPathUnits="userSpaceOnUse"
   id="clipPath1380"><path
     d="M 190.8,10.8 H 889.2 V 709.2 H 190.8 Z"
     id="path1378" /></clipPath><clipPath
   clipPathUnits="userSpaceOnUse"
   id="clipPath1390"><path
     d="M 190.8,10.8 H 889.2 V 709.2 H 190.8 Z"
     id="path1388" /></clipPath><clipPath
   clipPathUnits="userSpaceOnUse"
   id="clipPath1400"><path
     d="M 190.8,10.8 H 889.2 V 709.2 H 190.8 Z"
     id="path1398" /></clipPath><clipPath
   clipPathUnits="userSpaceOnUse"
   id="clipPath1410"><path
     d="M 190.8,10.8 H 889.2 V 709.2 H 190.8 Z"
     id="path1408" /></clipPath><clipPath
   clipPathUnits="userSpaceOnUse"
   id="clipPath1420"><path
     d="M 190.8,10.8 H 889.2 V 709.2 H 190.8 Z"
     id="path1418" /></clipPath><clipPath
   clipPathUnits="userSpaceOnUse"
   id="clipPath1430"><path
     d="M 190.8,10.8 H 889.2 V 709.2 H 190.8 Z"
     id="path1428" /></clipPath><clipPath
   clipPathUnits="userSpaceOnUse"
   id="clipPath1440"><path
     d="M 190.8,10.8 H 889.2 V 709.2 H 190.8 Z"
     id="path1438" /></clipPath><clipPath
   clipPathUnits="userSpaceOnUse"
   id="clipPath1450"><path
     d="M 190.8,10.8 H 889.2 V 709.2 H 190.8 Z"
     id="path1448" /></clipPath><inkscape:path-effect
   effect="bspline"
   id="path-effect3585-7"
   is_visible="true"
   lpeversion="1"
   weight="33.333333"
   steps="2"
   helper_size="0"
   apply_no_weight="true"
   apply_with_weight="true"
   only_selected="false" /><marker
   style="overflow:visible"
   id="marker3443-5"
   refX="0"
   refY="0"
   orient="auto-start-reverse"
   inkscape:stockid="Arrow1L"
   markerWidth="8.75"
   markerHeight="5"
   viewBox="0 0 8.75 5"
   inkscape:isstock="true"
   inkscape:collect="always"
   preserveAspectRatio="xMidYMid"><path
     style="fill:context-stroke;fill-rule:evenodd;stroke:none"
     d="M 0,0 5,-5 -12.5,0 5,5 Z"
     id="path3441-9"
     transform="scale(-0.5)" /></marker><marker
   style="overflow:visible"
   id="Arrow1L-1"
   refX="0"
   refY="0"
   orient="auto-start-reverse"
   inkscape:stockid="Arrow1L"
   markerWidth="8.75"
   markerHeight="5"
   viewBox="0 0 8.75 5"
   inkscape:isstock="true"
   inkscape:collect="always"
   preserveAspectRatio="xMidYMid"><path
     style="fill:context-stroke;fill-rule:evenodd;stroke:none"
     d="M 0,0 5,-5 -12.5,0 5,5 Z"
     id="arrow1L-7"
     transform="scale(-0.5)" /></marker><inkscape:path-effect
   effect="bspline"
   id="path-effect3421-4"
   is_visible="true"
   lpeversion="1"
   weight="33.333333"
   steps="2"
   helper_size="0"
   apply_no_weight="true"
   apply_with_weight="true"
   only_selected="false" /><marker
   style="overflow:visible"
   id="marker3443-5-0"
   refX="0"
   refY="0"
   orient="auto-start-reverse"
   inkscape:stockid="Arrow1L"
   markerWidth="8.75"
   markerHeight="5"
   viewBox="0 0 8.75 5"
   inkscape:isstock="true"
   inkscape:collect="always"
   preserveAspectRatio="xMidYMid"><path
     style="fill:context-stroke;fill-rule:evenodd;stroke:none"
     d="M 0,0 5,-5 -12.5,0 5,5 Z"
     id="path3441-9-1"
     transform="scale(-0.5)" /></marker><marker
   style="overflow:visible"
   id="Arrow1L-1-8"
   refX="0"
   refY="0"
   orient="auto-start-reverse"
   inkscape:stockid="Arrow1L"
   markerWidth="8.75"
   markerHeight="5"
   viewBox="0 0 8.75 5"
   inkscape:isstock="true"
   inkscape:collect="always"
   preserveAspectRatio="xMidYMid"><path
     style="fill:context-stroke;fill-rule:evenodd;stroke:none"
     d="M 0,0 5,-5 -12.5,0 5,5 Z"
     id="arrow1L-7-7"
     transform="scale(-0.5)" /></marker><inkscape:path-effect
   effect="bspline"
   id="path-effect3421-4-9"
   is_visible="true"
   lpeversion="1"
   weight="33.333333"
   steps="2"
   helper_size="0"
   apply_no_weight="true"
   apply_with_weight="true"
   only_selected="false" /><clipPath
   clipPathUnits="userSpaceOnUse"
   id="clipPath6170"><path
     d="M 190.8,10.8 H 889.2 V 709.2 H 190.8 Z"
     id="path6168" /></clipPath><clipPath
   clipPathUnits="userSpaceOnUse"
   id="clipPath6180"><path
     d="M 190.8,10.8 H 889.2 V 709.2 H 190.8 Z"
     id="path6178" /></clipPath><clipPath
   clipPathUnits="userSpaceOnUse"
   id="clipPath6190"><path
     d="M 190.8,10.8 H 889.2 V 709.2 H 190.8 Z"
     id="path6188" /></clipPath><clipPath
   clipPathUnits="userSpaceOnUse"
   id="clipPath6200"><path
     d="M 190.8,10.8 H 889.2 V 709.2 H 190.8 Z"
     id="path6198" /></clipPath><clipPath
   clipPathUnits="userSpaceOnUse"
   id="clipPath6210"><path
     d="M 190.8,10.8 H 889.2 V 709.2 H 190.8 Z"
     id="path6208" /></clipPath><clipPath
   clipPathUnits="userSpaceOnUse"
   id="clipPath6220"><path
     d="M 190.8,10.8 H 889.2 V 709.2 H 190.8 Z"
     id="path6218" /></clipPath><clipPath
   clipPathUnits="userSpaceOnUse"
   id="clipPath6230"><path
     d="M 190.8,10.8 H 889.2 V 709.2 H 190.8 Z"
     id="path6228" /></clipPath><clipPath
   clipPathUnits="userSpaceOnUse"
   id="clipPath6240"><path
     d="M 190.8,10.8 H 889.2 V 709.2 H 190.8 Z"
     id="path6238" /></clipPath><clipPath
   clipPathUnits="userSpaceOnUse"
   id="clipPath6250"><path
     d="M 190.8,10.8 H 889.2 V 709.2 H 190.8 Z"
     id="path6248" /></clipPath><clipPath
   clipPathUnits="userSpaceOnUse"
   id="clipPath6260"><path
     d="M 190.8,10.8 H 889.2 V 709.2 H 190.8 Z"
     id="path6258" /></clipPath><clipPath
   clipPathUnits="userSpaceOnUse"
   id="clipPath6270"><path
     d="M 190.8,10.8 H 889.2 V 709.2 H 190.8 Z"
     id="path6268" /></clipPath><clipPath
   clipPathUnits="userSpaceOnUse"
   id="clipPath6280"><path
     d="M 190.8,10.8 H 889.2 V 709.2 H 190.8 Z"
     id="path6278" /></clipPath><clipPath
   clipPathUnits="userSpaceOnUse"
   id="clipPath6290"><path
     d="M 190.8,10.8 H 889.2 V 709.2 H 190.8 Z"
     id="path6288" /></clipPath><clipPath
   clipPathUnits="userSpaceOnUse"
   id="clipPath6300"><path
     d="M 190.8,10.8 H 889.2 V 709.2 H 190.8 Z"
     id="path6298" /></clipPath><clipPath
   clipPathUnits="userSpaceOnUse"
   id="clipPath6310"><path
     d="M 190.8,10.8 H 889.2 V 709.2 H 190.8 Z"
     id="path6308" /></clipPath><clipPath
   clipPathUnits="userSpaceOnUse"
   id="clipPath6320"><path
     d="M 190.8,10.8 H 889.2 V 709.2 H 190.8 Z"
     id="path6318" /></clipPath><clipPath
   clipPathUnits="userSpaceOnUse"
   id="clipPath6330"><path
     d="M 190.8,10.8 H 889.2 V 709.2 H 190.8 Z"
     id="path6328" /></clipPath><clipPath
   clipPathUnits="userSpaceOnUse"
   id="clipPath6340"><path
     d="M 190.8,10.8 H 889.2 V 709.2 H 190.8 Z"
     id="path6338" /></clipPath><clipPath
   clipPathUnits="userSpaceOnUse"
   id="clipPath6350"><path
     d="M 190.8,10.8 H 889.2 V 709.2 H 190.8 Z"
     id="path6348" /></clipPath><clipPath
   clipPathUnits="userSpaceOnUse"
   id="clipPath6360"><path
     d="M 190.8,10.8 H 889.2 V 709.2 H 190.8 Z"
     id="path6358" /></clipPath><clipPath
   clipPathUnits="userSpaceOnUse"
   id="clipPath6370"><path
     d="M 190.8,10.8 H 889.2 V 709.2 H 190.8 Z"
     id="path6368" /></clipPath><clipPath
   clipPathUnits="userSpaceOnUse"
   id="clipPath6380"><path
     d="M 190.8,10.8 H 889.2 V 709.2 H 190.8 Z"
     id="path6378" /></clipPath><clipPath
   clipPathUnits="userSpaceOnUse"
   id="clipPath6390"><path
     d="M 190.8,10.8 H 889.2 V 709.2 H 190.8 Z"
     id="path6388" /></clipPath><clipPath
   clipPathUnits="userSpaceOnUse"
   id="clipPath6400"><path
     d="M 190.8,10.8 H 889.2 V 709.2 H 190.8 Z"
     id="path6398" /></clipPath><clipPath
   clipPathUnits="userSpaceOnUse"
   id="clipPath6410"><path
     d="M 190.8,10.8 H 889.2 V 709.2 H 190.8 Z"
     id="path6408" /></clipPath><clipPath
   clipPathUnits="userSpaceOnUse"
   id="clipPath6420"><path
     d="M 190.8,10.8 H 889.2 V 709.2 H 190.8 Z"
     id="path6418" /></clipPath><clipPath
   clipPathUnits="userSpaceOnUse"
   id="clipPath6430"><path
     d="M 190.8,10.8 H 889.2 V 709.2 H 190.8 Z"
     id="path6428" /></clipPath><clipPath
   clipPathUnits="userSpaceOnUse"
   id="clipPath6440"><path
     d="M 190.8,10.8 H 889.2 V 709.2 H 190.8 Z"
     id="path6438" /></clipPath><clipPath
   clipPathUnits="userSpaceOnUse"
   id="clipPath6450"><path
     d="M 190.8,10.8 H 889.2 V 709.2 H 190.8 Z"
     id="path6448" /></clipPath><clipPath
   clipPathUnits="userSpaceOnUse"
   id="clipPath6460"><path
     d="M 190.8,10.8 H 889.2 V 709.2 H 190.8 Z"
     id="path6458" /></clipPath><clipPath
   clipPathUnits="userSpaceOnUse"
   id="clipPath6470"><path
     d="M 190.8,10.8 H 889.2 V 709.2 H 190.8 Z"
     id="path6468" /></clipPath><clipPath
   clipPathUnits="userSpaceOnUse"
   id="clipPath6480"><path
     d="M 190.8,10.8 H 889.2 V 709.2 H 190.8 Z"
     id="path6478" /></clipPath><clipPath
   clipPathUnits="userSpaceOnUse"
   id="clipPath6490"><path
     d="M 190.8,10.8 H 889.2 V 709.2 H 190.8 Z"
     id="path6488" /></clipPath><inkscape:path-effect
   effect="bspline"
   id="path-effect3585-1"
   is_visible="true"
   lpeversion="1"
   weight="33.333333"
   steps="2"
   helper_size="0"
   apply_no_weight="true"
   apply_with_weight="true"
   only_selected="false" /><marker
   style="overflow:visible"
   id="marker8563-1"
   refX="0"
   refY="0"
   orient="auto-start-reverse"
   inkscape:stockid="Arrow1L"
   markerWidth="8.75"
   markerHeight="5"
   viewBox="0 0 8.75 5"
   inkscape:isstock="true"
   inkscape:collect="always"
   preserveAspectRatio="xMidYMid"><path
     style="fill:context-stroke;fill-rule:evenodd;stroke:none"
     d="M 0,0 5,-5 -12.5,0 5,5 Z"
     id="path8561-4"
     transform="scale(-0.5)" /></marker><marker
   style="overflow:visible"
   id="marker8471-8"
   refX="0"
   refY="0"
   orient="auto-start-reverse"
   inkscape:stockid="Arrow1L"
   markerWidth="8.75"
   markerHeight="5"
   viewBox="0 0 8.75 5"
   inkscape:isstock="true"
   inkscape:collect="always"
   preserveAspectRatio="xMidYMid"><path
     style="fill:context-stroke;fill-rule:evenodd;stroke:none"
     d="M 0,0 5,-5 -12.5,0 5,5 Z"
     id="path8469-5"
     transform="scale(-0.5)" /></marker><inkscape:path-effect
   effect="bspline"
   id="path-effect7633-2"
   is_visible="true"
   lpeversion="1"
   weight="33.333333"
   steps="2"
   helper_size="0"
   apply_no_weight="true"
   apply_with_weight="true"
   only_selected="false" /><clipPath
   id="clipPath2453">
      <path
   clip-rule="nonzero"
   d="M 5,5 H 8 V 8.359375 H 5 Z m 0,0"
   id="path4133" />
    </clipPath>
    <clipPath
   id="clipPath5173">
      <path
   clip-rule="nonzero"
   d="m 21,2 h 8.335938 V 7 H 21 Z m 0,0"
   id="path8400" />
    </clipPath>
  <clipPath
   id="clipPath9803">
      <path
   clip-rule="nonzero"
   d="M 5,5 H 8 V 8.359375 H 5 Z m 0,0"
   id="path1744" />
    </clipPath>
    <clipPath
   id="clipPath9777">
      <path
   clip-rule="nonzero"
   d="m 31,2 h 8.296875 V 7 H 31 Z m 0,0"
   id="path8025" />
    </clipPath>
  <clipPath
   id="clipPath3222">
      <path
   clip-rule="nonzero"
   d="M 5,5 H 8 V 8.359375 H 5 Z m 0,0"
   id="path3951" />
    </clipPath>
    <clipPath
   id="clipPath3974">
      <path
   clip-rule="nonzero"
   d="m 16,2 h 8.351563 V 7 H 16 Z m 0,0"
   id="path1053" />
    </clipPath>
  <clipPath
   id="clipPath1812">
      <path
   clip-rule="nonzero"
   d="M 0,0 H 5 V 6.421875 H 0 Z m 0,0"
   id="path6256" />
    </clipPath>
    <clipPath
   id="clipPath8945">
      <path
   clip-rule="nonzero"
   d="m 8,2 h 8.605469 V 6.421875 H 8 Z m 0,0"
   id="path2929" />
    </clipPath>
  <clipPath
   id="clipPath5958">
      <path
   clip-rule="nonzero"
   d="M 5,5 H 8 V 8.359375 H 5 Z m 0,0"
   id="path1712" />
    </clipPath>
    <clipPath
   id="clipPath2343">
      <path
   clip-rule="nonzero"
   d="m 16,2 h 8.351563 V 7 H 16 Z m 0,0"
   id="path574" />
    </clipPath>
  <marker
   style="overflow:visible"
   id="marker21932-4"
   refX="0"
   refY="0"
   orient="auto-start-reverse"
   inkscape:stockid="Arrow2"
   markerWidth="7.6999998"
   markerHeight="5.5999999"
   viewBox="0 0 7.7 5.6"
   inkscape:isstock="true"
   inkscape:collect="always"
   preserveAspectRatio="xMidYMid"><path
     transform="scale(0.7)"
     d="M -2,-4 9,0 -2,4 c 2,-2.33 2,-5.66 0,-8 z"
     style="fill:context-stroke;fill-rule:evenodd;stroke:none"
     id="path21930-1" /></marker><marker
   style="overflow:visible"
   id="Arrow2-1-8-1-1-4"
   refX="0"
   refY="0"
   orient="auto-start-reverse"
   inkscape:stockid="Arrow2"
   markerWidth="7.6999998"
   markerHeight="5.5999999"
   viewBox="0 0 7.7 5.6"
   inkscape:isstock="true"
   inkscape:collect="always"
   preserveAspectRatio="xMidYMid"><path
     transform="scale(0.7)"
     d="M -2,-4 9,0 -2,4 c 2,-2.33 2,-5.66 0,-8 z"
     style="fill:context-stroke;fill-rule:evenodd;stroke:none"
     id="arrow2L-1-8-2-3-9" /></marker><marker
   style="overflow:visible"
   id="Arrow2-1-8-1-1-4-8"
   refX="0"
   refY="0"
   orient="auto-start-reverse"
   inkscape:stockid="Arrow2"
   markerWidth="7.6999998"
   markerHeight="5.5999999"
   viewBox="0 0 7.7 5.6"
   inkscape:isstock="true"
   inkscape:collect="always"
   preserveAspectRatio="xMidYMid"><path
     transform="scale(0.7)"
     d="M -2,-4 9,0 -2,4 c 2,-2.33 2,-5.66 0,-8 z"
     style="fill:context-stroke;fill-rule:evenodd;stroke:none"
     id="arrow2L-1-8-2-3-9-9" /></marker><clipPath
   id="clipPath4896"><path
     clip-rule="nonzero"
     d="M 6,1 H 9 V 5.785156 H 6 Z m 0,0"
     id="path8276" /></clipPath><clipPath
   id="clipPath8761"><path
     clip-rule="nonzero"
     d="m 6,1 h 4 V 5.785156 H 6 Z m 0,0"
     id="path8419" /></clipPath><clipPath
   id="clipPath3129"><path
     clip-rule="nonzero"
     d="m 6,1 h 4 V 5.785156 H 6 Z m 0,0"
     id="path900" /></clipPath></defs><g
     inkscape:label="Layer 1"
     inkscape:groupmode="layer"
     id="layer1" /><g
     id="g844"
     transform="translate(-5.0354945,-44.381143)" /><g
     id="g2496"
     transform="translate(40.931544,-24.630579)"><path
       style="opacity:0.95;fill:none;fill-opacity:0;stroke:#000000;stroke-width:0.308999;stroke-linejoin:bevel;marker-start:url(#marker3443);marker-end:url(#Arrow1L)"
       d="m 1058.2822,112.55037 c 0.3647,19.25178 0.7295,38.50332 1.0942,57.75459"
       id="path3419"
       inkscape:path-effect="#path-effect3421"
       inkscape:original-d="m 1058.2822,112.55037 c 0.365,19.25178 0.7297,38.50332 1.0942,57.75459"
       sodipodi:nodetypes="cc" /><path
       style="opacity:0.95;fill:none;fill-opacity:0;stroke:#000000;stroke-width:0.308999;stroke-linejoin:bevel;marker-start:url(#marker3443-5);marker-end:url(#Arrow1L-1)"
       d="m 1271.1495,122.751 c -52.4808,6.13584 -104.9621,12.27172 -157.4434,18.40761"
       id="path3419-2"
       inkscape:path-effect="#path-effect3421-4"
       inkscape:original-d="m 1271.1495,122.751 c -52.4808,6.13613 -104.9621,12.27201 -157.4434,18.40761"
       sodipodi:nodetypes="cc" /><path
       style="opacity:0.95;fill:none;fill-opacity:0;stroke:#000000;stroke-width:0.308999;stroke-linejoin:bevel;marker-start:url(#marker3443-5-0);marker-end:url(#Arrow1L-1-8)"
       d="m 1109.8262,141.53306 c -15.6564,-9.23662 -31.313,-18.47343 -46.9702,-27.71051"
       id="path3419-2-0"
       inkscape:path-effect="#path-effect3421-4-9"
       inkscape:original-d="m 1109.8262,141.53306 c -15.6564,-9.23655 -31.3131,-18.47334 -46.9702,-27.71051"
       sodipodi:nodetypes="cc" /><path
       style="opacity:0.95;fill:none;fill-opacity:0;stroke:#000000;stroke-width:0.308999;stroke-linejoin:bevel"
       d="m 1063.4369,171.84308 c -1.6625,0.2257 -3.3252,0.45142 -4.9882,0.67718"
       id="path3583-9"
       inkscape:path-effect="#path-effect3585-7"
       inkscape:original-d="m 1063.4369,171.84308 c -1.6625,0.22599 -3.3252,0.45172 -4.9882,0.67718"
       sodipodi:nodetypes="cc" /><path
       style="opacity:0.95;fill:none;fill-opacity:0;stroke:#000000;stroke-width:0.308999;stroke-linejoin:bevel"
       d="m 1061.6706,110.22098 c -1.4554,0.10884 -2.9113,0.21772 -4.3672,0.3266"
       id="path3583"
       inkscape:path-effect="#path-effect3585-1"
       inkscape:original-d="m 1061.6706,110.22098 c -1.4554,0.10913 -2.9113,0.21801 -4.3672,0.3266"
       sodipodi:nodetypes="cc" /></g><g
     id="g6164"
     transform="matrix(0.35277776,0,0,-0.35277778,1002,254.00001)"><g
       id="g6166"
       clip-path="url(#clipPath6170)"><path
         d="m 286.439,302.19368 423.25311,52.82045"
         style="fill:none;stroke:#000000;stroke-width:1;stroke-linecap:butt;stroke-linejoin:round;stroke-miterlimit:10;stroke-dasharray:3.7, 1.6;stroke-dashoffset:0;stroke-opacity:1"
         id="path6172" /></g></g><g
     id="g6174"
     transform="matrix(0.35277776,0,0,-0.35277778,1002,254.00001)"><g
       id="g6176"
       clip-path="url(#clipPath6180)"><path
         d="M 709.69211,355.01413 880.54435,266.60617"
         style="fill:none;stroke:#000000;stroke-width:1;stroke-linecap:butt;stroke-linejoin:round;stroke-miterlimit:10;stroke-dasharray:3.7, 1.6;stroke-dashoffset:0;stroke-opacity:1"
         id="path6182" /></g></g><g
     id="g6184"
     transform="matrix(0.35277776,0,0,-0.35277778,1002,254.00001)"><g
       id="g6186"
       clip-path="url(#clipPath6190)"><path
         d="M 880.54435,266.60617 428.36741,204.01272"
         style="fill:none;stroke:#000000;stroke-width:1;stroke-linecap:square;stroke-linejoin:round;stroke-miterlimit:10;stroke-dasharray:none;stroke-opacity:1"
         id="path6192" /></g></g><g
     id="g6194"
     transform="matrix(0.35277776,0,0,-0.35277778,1002,254.00001)"><g
       id="g6196"
       clip-path="url(#clipPath6200)"><path
         d="M 428.36741,204.01272 286.439,302.19368"
         style="fill:none;stroke:#000000;stroke-width:1;stroke-linecap:square;stroke-linejoin:round;stroke-miterlimit:10;stroke-dasharray:none;stroke-opacity:1"
         id="path6202" /></g></g><g
     id="g6204"
     transform="matrix(0.35277776,0,0,-0.35277778,1002,254.00001)"><g
       id="g6206"
       clip-path="url(#clipPath6210)"><path
         d="M 283.15539,477.25888 711.5938,522.03274"
         style="fill:none;stroke:#000000;stroke-width:1;stroke-linecap:square;stroke-linejoin:round;stroke-miterlimit:10;stroke-dasharray:none;stroke-opacity:1"
         id="path6212" /></g></g><g
     id="g6214"
     transform="matrix(0.35277776,0,0,-0.35277778,1002,254.00001)"><g
       id="g6216"
       clip-path="url(#clipPath6220)"><path
         d="M 711.5938,522.03274 884.81643,447.06183"
         style="fill:none;stroke:#000000;stroke-width:1;stroke-linecap:square;stroke-linejoin:round;stroke-miterlimit:10;stroke-dasharray:none;stroke-opacity:1"
         id="path6222" /></g></g><g
     id="g6224"
     transform="matrix(0.35277776,0,0,-0.35277778,1002,254.00001)"><g
       id="g6226"
       clip-path="url(#clipPath6230)"><path
         d="M 884.81643,447.06183 426.71637,393.88904"
         style="fill:none;stroke:#000000;stroke-width:1;stroke-linecap:square;stroke-linejoin:round;stroke-miterlimit:10;stroke-dasharray:none;stroke-opacity:1"
         id="path6232" /></g></g><g
     id="g6234"
     transform="matrix(0.35277776,0,0,-0.35277778,1002,254.00001)"><g
       id="g6236"
       clip-path="url(#clipPath6240)"><path
         d="M 426.71637,393.88904 283.15539,477.25888"
         style="fill:none;stroke:#000000;stroke-width:1;stroke-linecap:square;stroke-linejoin:round;stroke-miterlimit:10;stroke-dasharray:none;stroke-opacity:1"
         id="path6242" /></g></g><g
     id="g6244"
     transform="matrix(0.35277776,0,0,-0.35277778,1002,254.00001)"><g
       id="g6246"
       clip-path="url(#clipPath6250)"><path
         d="m 286.439,302.19368 -3.28361,175.0652"
         style="fill:none;stroke:#000000;stroke-width:1;stroke-linecap:square;stroke-linejoin:round;stroke-miterlimit:10;stroke-dasharray:none;stroke-opacity:1"
         id="path6252" /></g></g><g
     id="g6254"
     transform="matrix(0.35277776,0,0,-0.35277778,1002,254.00001)"><g
       id="g6256"
       clip-path="url(#clipPath6260)"><path
         d="m 709.69211,355.01413 1.90169,167.01861"
         style="fill:none;stroke:#000000;stroke-width:1;stroke-linecap:butt;stroke-linejoin:round;stroke-miterlimit:10;stroke-dasharray:3.7, 1.6;stroke-dashoffset:0;stroke-opacity:1"
         id="path6262" /></g></g><g
     id="g6264"
     transform="matrix(0.35277776,0,0,-0.35277778,1002,254.00001)"><g
       id="g6266"
       clip-path="url(#clipPath6270)"><path
         d="m 880.54435,266.60617 4.27208,180.45566"
         style="fill:none;stroke:#000000;stroke-width:1;stroke-linecap:square;stroke-linejoin:round;stroke-miterlimit:10;stroke-dasharray:none;stroke-opacity:1"
         id="path6272" /></g></g><g
     id="g6274"
     transform="matrix(0.35277776,0,0,-0.35277778,1002,254.00001)"><g
       id="g6276"
       clip-path="url(#clipPath6280)"><path
         d="m 428.36741,204.01272 -1.65104,189.87632"
         style="fill:none;stroke:#000000;stroke-width:1;stroke-linecap:square;stroke-linejoin:round;stroke-miterlimit:10;stroke-dasharray:none;stroke-opacity:1"
         id="path6282" /></g></g><g
     id="g6284"
     transform="matrix(0.35277776,0,0,-0.35277778,1002,254.00001)"><g
       id="g6286"
       clip-path="url(#clipPath6290)"><path
         d="m 433.2925,272.77967 37.28662,4.86272"
         style="fill:none;stroke:#0000ff;stroke-width:1;stroke-linecap:butt;stroke-linejoin:round;stroke-miterlimit:10;stroke-dasharray:3.7, 1.6;stroke-dashoffset:0;stroke-opacity:1"
         id="path6292" /></g></g><g
     id="g6304"
     transform="matrix(0.35277776,0,0,-0.35277778,1002,254.00001)"><g
       id="g6306"
       clip-path="url(#clipPath6310)"><path
         d="M 451.76793,260.7805 433.2925,272.77967"
         style="fill:none;stroke:#0000ff;stroke-width:1;stroke-linecap:square;stroke-linejoin:round;stroke-miterlimit:10;stroke-dasharray:none;stroke-opacity:1"
         id="path6312" /></g></g><g
     id="g6314"
     transform="matrix(0.35277776,0,0,-0.35277778,1002,254.00001)"><g
       id="g6316"
       clip-path="url(#clipPath6320)"><path
         d="m 432.92351,317.23251 37.40618,4.68242"
         style="fill:none;stroke:#0000ff;stroke-width:1;stroke-linecap:square;stroke-linejoin:round;stroke-miterlimit:10;stroke-dasharray:none;stroke-opacity:1"
         id="path6322" /></g></g><g
     id="g6324"
     transform="matrix(0.35277776,0,0,-0.35277778,1002,254.00001)"><g
       id="g6326"
       clip-path="url(#clipPath6330)"><path
         d="m 489.18251,310.46214 -37.72824,-4.78447"
         style="fill:none;stroke:#0000ff;stroke-width:1;stroke-linecap:square;stroke-linejoin:round;stroke-miterlimit:10;stroke-dasharray:none;stroke-opacity:1"
         id="path6332" /></g></g><g
     id="g6334"
     transform="matrix(0.35277776,0,0,-0.35277778,1002,254.00001)"><g
       id="g6336"
       clip-path="url(#clipPath6340)"><path
         d="m 451.45427,305.67767 -18.53076,11.55484"
         style="fill:none;stroke:#0000ff;stroke-width:1;stroke-linecap:square;stroke-linejoin:round;stroke-miterlimit:10;stroke-dasharray:none;stroke-opacity:1"
         id="path6342" /></g></g><g
     id="g6344"
     transform="matrix(0.35277776,0,0,-0.35277778,1002,254.00001)"><g
       id="g6346"
       clip-path="url(#clipPath6350)"><path
         d="m 433.2925,272.77967 -0.36899,44.45284"
         style="fill:none;stroke:#0000ff;stroke-width:1;stroke-linecap:square;stroke-linejoin:round;stroke-miterlimit:10;stroke-dasharray:none;stroke-opacity:1"
         id="path6352" /></g></g><g
     id="g6354"
     transform="matrix(0.35277776,0,0,-0.35277778,1002,254.00001)"><g
       id="g6356"
       clip-path="url(#clipPath6360)"><path
         d="m 451.76793,260.7805 -0.31366,44.89717"
         style="fill:none;stroke:#0000ff;stroke-width:1;stroke-linecap:square;stroke-linejoin:round;stroke-miterlimit:10;stroke-dasharray:none;stroke-opacity:1"
         id="path6362" /></g></g><g
     id="g6364"
     transform="matrix(0.35277776,0,0,-0.35277778,1002,254.00001)"><g
       id="g6366"
       clip-path="url(#clipPath6370)"><path
         d="m 470.57912,277.64239 36.96083,4.82023"
         style="fill:none;stroke:#0000ff;stroke-width:1;stroke-linecap:butt;stroke-linejoin:round;stroke-miterlimit:10;stroke-dasharray:3.7, 1.6;stroke-dashoffset:0;stroke-opacity:1"
         id="path6372" /></g></g><g
     id="g6374"
     transform="matrix(0.35277776,0,0,-0.35277778,1002,254.00001)"><g
       id="g6376"
       clip-path="url(#clipPath6380)"><path
         d="m 507.53995,282.46262 19.10909,-11.78928"
         style="fill:none;stroke:#0000ff;stroke-width:1;stroke-linecap:butt;stroke-linejoin:round;stroke-miterlimit:10;stroke-dasharray:3.7, 1.6;stroke-dashoffset:0;stroke-opacity:1"
         id="path6382" /></g></g><g
     id="g13054"><g
       id="g6294"
       transform="matrix(0.35277776,0,0,-0.35277778,1002,254.00001)"><g
         id="g6296"
         clip-path="url(#clipPath6300)"><path
           d="M 489.37454,265.74886 451.76793,260.7805"
           style="fill:none;stroke:#0000ff;stroke-width:1;stroke-linecap:square;stroke-linejoin:round;stroke-miterlimit:10;stroke-dasharray:none;stroke-opacity:1"
           id="path6302" /></g></g><g
       id="g6384"
       transform="matrix(0.35277776,0,0,-0.35277778,1002,254.00001)"><g
         id="g6386"
         clip-path="url(#clipPath6390)"><path
           d="m 526.64904,270.67334 -37.2745,-4.92448"
           style="fill:none;stroke:#0000ff;stroke-width:1;stroke-linecap:square;stroke-linejoin:round;stroke-miterlimit:10;stroke-dasharray:none;stroke-opacity:1"
           id="path6392" /></g></g></g><g
     id="g6394"
     transform="matrix(0.35277776,0,0,-0.35277778,1002,254.00001)"><g
       id="g6396"
       clip-path="url(#clipPath6400)"><path
         d="m 507.53995,282.46262 -0.13194,44.0937"
         style="fill:none;stroke:#0000ff;stroke-width:1;stroke-linecap:butt;stroke-linejoin:round;stroke-miterlimit:10;stroke-dasharray:3.7, 1.6;stroke-dashoffset:0;stroke-opacity:1"
         id="path6402" /></g></g><g
     id="g6404"
     transform="matrix(0.35277776,0,0,-0.35277778,1002,254.00001)"><g
       id="g6406"
       clip-path="url(#clipPath6410)"><path
         d="m 526.64904,270.67334 -0.0725,44.53089"
         style="fill:none;stroke:#0000ff;stroke-width:1;stroke-linecap:square;stroke-linejoin:round;stroke-miterlimit:10;stroke-dasharray:none;stroke-opacity:1"
         id="path6412" /></g></g><g
     id="g6414"
     transform="matrix(0.35277776,0,0,-0.35277778,1002,254.00001)"><g
       id="g6416"
       clip-path="url(#clipPath6420)"><path
         d="m 470.07868,366.46843 37.19655,4.46017"
         style="fill:none;stroke:#0000ff;stroke-width:1;stroke-linecap:square;stroke-linejoin:round;stroke-miterlimit:10;stroke-dasharray:none;stroke-opacity:1"
         id="path6422" /></g></g><g
     id="g6424"
     transform="matrix(0.35277776,0,0,-0.35277778,1002,254.00001)"><g
       id="g6426"
       clip-path="url(#clipPath6430)"><path
         d="M 507.27523,370.9286 526.5035,360.01951"
         style="fill:none;stroke:#0000ff;stroke-width:1;stroke-linecap:square;stroke-linejoin:round;stroke-miterlimit:10;stroke-dasharray:none;stroke-opacity:1"
         id="path6432" /></g></g><g
     id="g6434"
     transform="matrix(0.35277776,0,0,-0.35277778,1002,254.00001)"><g
       id="g6436"
       clip-path="url(#clipPath6440)"><path
         d="m 526.5035,360.01951 -37.51425,-4.55726"
         style="fill:none;stroke:#0000ff;stroke-width:1;stroke-linecap:square;stroke-linejoin:round;stroke-miterlimit:10;stroke-dasharray:none;stroke-opacity:1"
         id="path6442" /></g></g><g
     id="g6444"
     transform="matrix(0.35277776,0,0,-0.35277778,1002,254.00001)"><g
       id="g6446"
       clip-path="url(#clipPath6450)"><path
         d="m 488.98925,355.46225 -18.91057,11.00618"
         style="fill:none;stroke:#0000ff;stroke-width:1;stroke-linecap:square;stroke-linejoin:round;stroke-miterlimit:10;stroke-dasharray:none;stroke-opacity:1"
         id="path6452" /></g></g><g
     id="g6454"
     transform="matrix(0.35277776,0,0,-0.35277778,1002,254.00001)"><g
       id="g6456"
       clip-path="url(#clipPath6460)"><path
         d="m 470.32969,321.91493 -0.25101,44.5535"
         style="fill:none;stroke:#0000ff;stroke-width:1;stroke-linecap:square;stroke-linejoin:round;stroke-miterlimit:10;stroke-dasharray:none;stroke-opacity:1"
         id="path6462" /></g></g><g
     id="g6464"
     transform="matrix(0.35277776,0,0,-0.35277778,1002,254.00001)"><g
       id="g6466"
       clip-path="url(#clipPath6470)"><path
         d="m 507.40801,326.55632 -0.13278,44.37228"
         style="fill:none;stroke:#0000ff;stroke-width:1;stroke-linecap:butt;stroke-linejoin:round;stroke-miterlimit:10;stroke-dasharray:3.7, 1.6;stroke-dashoffset:0;stroke-opacity:1"
         id="path6472" /></g></g><g
     id="g6474"
     transform="matrix(0.35277776,0,0,-0.35277778,1002,254.00001)"><g
       id="g6476"
       clip-path="url(#clipPath6480)"><path
         d="m 526.5765,315.20423 -0.073,44.81528"
         style="fill:none;stroke:#0000ff;stroke-width:1;stroke-linecap:square;stroke-linejoin:round;stroke-miterlimit:10;stroke-dasharray:none;stroke-opacity:1"
         id="path6482" /></g></g><g
     id="g6484"
     transform="matrix(0.35277776,0,0,-0.35277778,1002,254.00001)"><g
       id="g6486"
       clip-path="url(#clipPath6490)"><path
         d="m 489.18251,310.46214 -0.19326,45.00011"
         style="fill:none;stroke:#0000ff;stroke-width:1;stroke-linecap:square;stroke-linejoin:round;stroke-miterlimit:10;stroke-dasharray:none;stroke-opacity:1"
         id="path6492" /></g></g><path
     style="opacity:0.95;fill:none;fill-opacity:0;stroke:#000000;stroke-width:0.308999;stroke-linejoin:bevel;marker-start:url(#marker8563);marker-end:url(#marker8471)"
     d="m 1159.2481,162.29941 c -9.1202,1.09132 -18.2408,2.18268 -27.3616,3.27406"
     id="path7631"
     inkscape:path-effect="#path-effect7633"
     inkscape:original-d="m 1159.2481,162.29941 c -9.1202,1.09161 -18.2408,2.18297 -27.3616,3.27406"
     sodipodi:nodetypes="cc" /><path
     style="opacity:0.95;fill:none;fill-opacity:0;stroke:#000000;stroke-width:0.308999;stroke-linejoin:bevel;marker-start:url(#marker8563-1);marker-end:url(#marker8471-8)"
     d="m 1182.8914,176.42461 c -6.5945,-4.41193 -13.1894,-8.82414 -19.7845,-13.23652"
     id="path7631-3"
     inkscape:path-effect="#path-effect7633-2"
     inkscape:original-d="m 1182.8914,176.42461 c -6.5945,-4.41188 -13.1894,-8.82408 -19.7845,-13.23652"
     sodipodi:nodetypes="cc" /><g
     inkscape:label=""
     transform="translate(1140.3949,159.67974)"
     id="g12529"><g
   fill="#000000"
   fill-opacity="1"
   id="g31"
   transform="matrix(0.352778,0,0,0.352778,-0.137804,0.0774788)">
    <g
   id="use29"
   transform="translate(0,6.421)">
      <path
   d="m 4.578125,-3.1875 c 0,-0.796875 -0.046875,-1.59375 -0.390625,-2.328125 -0.453125,-0.96875 -1.28125,-1.125 -1.6875,-1.125 -0.609375,0 -1.328125,0.265625 -1.75,1.1875 -0.3125,0.6875 -0.359375,1.46875 -0.359375,2.265625 0,0.75 0.03125,1.640625 0.453125,2.40625 0.421875,0.796875 1.15625,1 1.640625,1 0.53125,0 1.296875,-0.203125 1.734375,-1.15625 0.3125,-0.6875 0.359375,-1.46875 0.359375,-2.25 z M 2.484375,0 C 2.09375,0 1.5,-0.25 1.328125,-1.203125 1.21875,-1.796875 1.21875,-2.71875 1.21875,-3.3125 c 0,-0.640625 0,-1.296875 0.078125,-1.828125 0.1875,-1.1875 0.9375,-1.28125 1.1875,-1.28125 0.328125,0 0.984375,0.1875 1.171875,1.171875 0.109375,0.5625 0.109375,1.3125 0.109375,1.9375 0,0.75 0,1.421875 -0.109375,2.0625 C 3.5,-0.296875 2.9375,0 2.484375,0 Z m 0,0"
   id="path55" />
    </g>
  </g>
  <g
   clip-path="url(#clipPath2453)"
   id="g37"
   transform="matrix(0.352778,0,0,0.352778,-0.137804,0.0774788)">
    <g
   fill="#000000"
   fill-opacity="1"
   id="g35">
      <g
   id="use33"
   transform="translate(4.9809999,6.421)">
        <path
   d="m 2.03125,-0.015625 c 0,-0.65625 -0.25,-1.046875 -0.640625,-1.046875 -0.328125,0 -0.53125,0.25 -0.53125,0.53125 C 0.859375,-0.265625 1.0625,0 1.390625,0 1.5,0 1.640625,-0.046875 1.734375,-0.125 1.765625,-0.15625 1.78125,-0.15625 1.78125,-0.15625 c 0.015625,0 0.015625,0 0.015625,0.140625 0,0.75 -0.34375,1.34375 -0.671875,1.671875 -0.109375,0.109375 -0.109375,0.125 -0.109375,0.15625 0,0.078125 0.046875,0.109375 0.09375,0.109375 0.109375,0 0.921875,-0.765625 0.921875,-1.9375 z m 0,0"
   id="path59" />
      </g>
    </g>
  </g>
  <g
   fill="#000000"
   fill-opacity="1"
   id="g43"
   transform="matrix(0.352778,0,0,0.352778,-0.137804,0.0774788)">
    <g
   id="use39"
   transform="translate(7.7490001,6.421)">
      <path
   d="m 1.265625,-0.765625 1.0625,-1.03125 c 1.546875,-1.375 2.140625,-1.90625 2.140625,-2.90625 0,-1.140625 -0.890625,-1.9375 -2.109375,-1.9375 -1.125,0 -1.859375,0.921875 -1.859375,1.8125 0,0.546875 0.5,0.546875 0.53125,0.546875 0.171875,0 0.515625,-0.109375 0.515625,-0.53125 0,-0.25 -0.1875,-0.515625 -0.53125,-0.515625 -0.078125,0 -0.09375,0 -0.125,0.015625 0.21875,-0.65625 0.765625,-1.015625 1.34375,-1.015625 0.90625,0 1.328125,0.8125 1.328125,1.625 C 3.5625,-3.90625 3.078125,-3.125 2.515625,-2.5 l -1.90625,2.125 C 0.5,-0.265625 0.5,-0.234375 0.5,0 H 4.203125 L 4.46875,-1.734375 H 4.234375 C 4.171875,-1.4375 4.109375,-1 4,-0.84375 3.9375,-0.765625 3.28125,-0.765625 3.0625,-0.765625 Z m 0,0"
   id="path63" />
    </g>
    <g
   id="use41"
   transform="translate(12.7303,6.421)">
      <path
   d="m 3.65625,-3.171875 v 0.328125 c 0,2.328125 -1.03125,2.78125 -1.609375,2.78125 -0.171875,0 -0.71875,-0.015625 -0.984375,-0.359375 0.4375,0 0.515625,-0.28125 0.515625,-0.453125 0,-0.3125 -0.234375,-0.453125 -0.453125,-0.453125 -0.15625,0 -0.453125,0.078125 -0.453125,0.46875 0,0.671875 0.53125,1.078125 1.375,1.078125 1.296875,0 2.515625,-1.359375 2.515625,-3.5 0,-2.6875 -1.15625,-3.359375 -2.046875,-3.359375 -0.546875,0 -1.03125,0.1875 -1.453125,0.625 -0.421875,0.453125 -0.640625,0.875 -0.640625,1.625 0,1.234375 0.875,2.21875 1.984375,2.21875 0.609375,0 1.015625,-0.421875 1.25,-1 z M 2.421875,-2.40625 c -0.15625,0 -0.625,0 -0.921875,-0.625 -0.1875,-0.375 -0.1875,-0.859375 -0.1875,-1.359375 0,-0.53125 0,-1 0.21875,-1.375 0.265625,-0.5 0.640625,-0.625 0.984375,-0.625 0.46875,0 0.796875,0.34375 0.96875,0.78125 0.109375,0.328125 0.15625,0.953125 0.15625,1.40625 0,0.828125 -0.34375,1.796875 -1.21875,1.796875 z m 0,0"
   id="path67" />
    </g>
  </g>
  <g
   clip-path="url(#clipPath5173)"
   id="g49"
   transform="matrix(0.352778,0,0,0.352778,-0.137804,0.0774788)">
    <g
   fill="#000000"
   fill-opacity="1"
   id="g47">
      <g
   id="use45"
   transform="translate(21.029146,6.421)">
        <path
   d="M 1.09375,-3.421875 V -0.75 c 0,0.4375 -0.109375,0.4375 -0.78125,0.4375 V 0 c 0.359375,-0.015625 0.859375,-0.03125 1.140625,-0.03125 0.25,0 0.765625,0.015625 1.109375,0.03125 v -0.3125 c -0.671875,0 -0.78125,0 -0.78125,-0.4375 V -2.59375 C 1.78125,-3.625 2.5,-4.1875 3.125,-4.1875 c 0.640625,0 0.75,0.53125 0.75,1.109375 V -0.75 c 0,0.4375 -0.109375,0.4375 -0.78125,0.4375 V 0 c 0.34375,-0.015625 0.859375,-0.03125 1.125,-0.03125 0.25,0 0.78125,0.015625 1.109375,0.03125 v -0.3125 c -0.65625,0 -0.765625,0 -0.765625,-0.4375 v -1.84375 c 0,-1.03125 0.703125,-1.59375 1.34375,-1.59375 0.625,0 0.734375,0.53125 0.734375,1.109375 V -0.75 c 0,0.4375 -0.109375,0.4375 -0.78125,0.4375 V 0 c 0.34375,-0.015625 0.859375,-0.03125 1.125,-0.03125 0.265625,0 0.78125,0.015625 1.125,0.03125 v -0.3125 c -0.515625,0 -0.765625,0 -0.78125,-0.296875 v -1.90625 c 0,-0.859375 0,-1.15625 -0.3125,-1.515625 -0.140625,-0.171875 -0.46875,-0.375 -1.046875,-0.375 -0.828125,0 -1.28125,0.59375 -1.4375,0.984375 C 4.390625,-4.296875 3.65625,-4.40625 3.203125,-4.40625 2.46875,-4.40625 2,-3.984375 1.71875,-3.359375 V -4.40625 L 0.3125,-4.296875 v 0.3125 c 0.703125,0 0.78125,0.0625 0.78125,0.5625 z m 0,0"
   id="path71" />
      </g>
    </g>
  </g>
</g><g
     inkscape:label=""
     transform="translate(1173.3924,166.60097)"
     id="g15986"><g
   fill="#000000"
   fill-opacity="1"
   id="g15964"
   transform="matrix(0.352778,0,0,0.352778,-0.137804,0.116064)">
    <g
   id="use35"
   transform="translate(0,6.421)">
      <path
   d="m 4.578125,-3.1875 c 0,-0.796875 -0.046875,-1.59375 -0.390625,-2.328125 -0.453125,-0.96875 -1.28125,-1.125 -1.6875,-1.125 -0.609375,0 -1.328125,0.265625 -1.75,1.1875 -0.3125,0.6875 -0.359375,1.46875 -0.359375,2.265625 0,0.75 0.03125,1.640625 0.453125,2.40625 0.421875,0.796875 1.15625,1 1.640625,1 0.53125,0 1.296875,-0.203125 1.734375,-1.15625 0.3125,-0.6875 0.359375,-1.46875 0.359375,-2.25 z M 2.484375,0 C 2.09375,0 1.5,-0.25 1.328125,-1.203125 1.21875,-1.796875 1.21875,-2.71875 1.21875,-3.3125 c 0,-0.640625 0,-1.296875 0.078125,-1.828125 0.1875,-1.1875 0.9375,-1.28125 1.1875,-1.28125 0.328125,0 0.984375,0.1875 1.171875,1.171875 0.109375,0.5625 0.109375,1.3125 0.109375,1.9375 0,0.75 0,1.421875 -0.109375,2.0625 C 3.5,-0.296875 2.9375,0 2.484375,0 Z m 0,0"
   id="path65" />
    </g>
  </g>
  <g
   clip-path="url(#clipPath9803)"
   id="g15970"
   transform="matrix(0.352778,0,0,0.352778,-0.137804,0.116064)">
    <g
   fill="#000000"
   fill-opacity="1"
   id="g41">
      <g
   id="g15967"
   transform="translate(4.9809999,6.421)">
        <path
   d="m 2.03125,-0.015625 c 0,-0.65625 -0.25,-1.046875 -0.640625,-1.046875 -0.328125,0 -0.53125,0.25 -0.53125,0.53125 C 0.859375,-0.265625 1.0625,0 1.390625,0 1.5,0 1.640625,-0.046875 1.734375,-0.125 1.765625,-0.15625 1.78125,-0.15625 1.78125,-0.15625 c 0.015625,0 0.015625,0 0.015625,0.140625 0,0.75 -0.34375,1.34375 -0.671875,1.671875 -0.109375,0.109375 -0.109375,0.125 -0.109375,0.15625 0,0.078125 0.046875,0.109375 0.09375,0.109375 0.109375,0 0.921875,-0.765625 0.921875,-1.9375 z m 0,0"
   id="path69" />
      </g>
    </g>
  </g>
  <g
   fill="#000000"
   fill-opacity="1"
   id="g53"
   transform="matrix(0.352778,0,0,0.352778,-0.137804,0.116064)">
    <g
   id="g15973"
   transform="translate(7.7490001,6.421)">
      <path
   d="m 2.9375,-1.640625 v 0.859375 c 0,0.359375 -0.03125,0.46875 -0.765625,0.46875 H 1.96875 V 0 C 2.375,-0.03125 2.890625,-0.03125 3.3125,-0.03125 c 0.421875,0 0.9375,0 1.359375,0.03125 v -0.3125 h -0.21875 c -0.734375,0 -0.75,-0.109375 -0.75,-0.46875 V -1.640625 H 4.6875 v -0.3125 H 3.703125 v -4.53125 c 0,-0.203125 0,-0.265625 -0.171875,-0.265625 -0.078125,0 -0.109375,0 -0.1875,0.125 l -3.0625,4.671875 v 0.3125 z m 0.046875,-0.3125 H 0.5625 l 2.421875,-3.71875 z m 0,0"
   id="path73" />
    </g>
    <g
   id="use47"
   transform="translate(12.7303,6.421)">
      <path
   d="m 2.890625,-3.515625 c 0.8125,-0.265625 1.390625,-0.953125 1.390625,-1.75 0,-0.8125 -0.875,-1.375 -1.828125,-1.375 -1,0 -1.765625,0.59375 -1.765625,1.359375 0,0.328125 0.21875,0.515625 0.515625,0.515625 0.296875,0 0.5,-0.21875 0.5,-0.515625 0,-0.484375 -0.46875,-0.484375 -0.609375,-0.484375 0.296875,-0.5 0.953125,-0.625 1.3125,-0.625 0.421875,0 0.96875,0.21875 0.96875,1.109375 0,0.125 -0.03125,0.703125 -0.28125,1.140625 C 2.796875,-3.65625 2.453125,-3.625 2.203125,-3.625 2.125,-3.609375 1.890625,-3.59375 1.8125,-3.59375 c -0.078125,0.015625 -0.140625,0.03125 -0.140625,0.125 0,0.109375 0.0625,0.109375 0.234375,0.109375 h 0.4375 c 0.8125,0 1.1875,0.671875 1.1875,1.65625 0,1.359375 -0.6875,1.640625 -1.125,1.640625 -0.4375,0 -1.1875,-0.171875 -1.53125,-0.75 0.34375,0.046875 0.65625,-0.171875 0.65625,-0.546875 0,-0.359375 -0.265625,-0.5625 -0.546875,-0.5625 -0.25,0 -0.5625,0.140625 -0.5625,0.578125 0,0.90625 0.921875,1.5625 2.015625,1.5625 1.21875,0 2.125,-0.90625 2.125,-1.921875 0,-0.8125 -0.640625,-1.59375 -1.671875,-1.8125 z m 0,0"
   id="path77" />
    </g>
    <g
   id="use49"
   transform="translate(17.711599,6.421)">
      <path
   d="m 4.75,-6.078125 c 0.078125,-0.109375 0.078125,-0.125 0.078125,-0.34375 H 2.40625 c -1.203125,0 -1.234375,-0.125 -1.265625,-0.3125 h -0.25 L 0.5625,-4.6875 h 0.25 c 0.03125,-0.15625 0.109375,-0.78125 0.25,-0.90625 0.0625,-0.0625 0.84375,-0.0625 0.96875,-0.0625 h 2.0625 C 3.984375,-5.5 3.203125,-4.40625 2.984375,-4.078125 2.078125,-2.734375 1.75,-1.34375 1.75,-0.328125 c 0,0.09375 0,0.546875 0.46875,0.546875 0.453125,0 0.453125,-0.453125 0.453125,-0.546875 V -0.84375 c 0,-0.546875 0.03125,-1.09375 0.109375,-1.625 0.046875,-0.234375 0.171875,-1.09375 0.625,-1.703125 z m 0,0"
   id="path81" />
    </g>
    <g
   id="use51"
   transform="translate(22.6929,6.421)">
      <path
   d="m 4.46875,-2 c 0,-1.1875 -0.8125,-2.1875 -1.890625,-2.1875 -0.46875,0 -0.90625,0.15625 -1.265625,0.515625 V -5.625 c 0.203125,0.0625 0.53125,0.125 0.84375,0.125 1.234375,0 1.9375,-0.90625 1.9375,-1.03125 0,-0.0625 -0.03125,-0.109375 -0.109375,-0.109375 0,0 -0.03125,0 -0.078125,0.03125 C 3.703125,-6.515625 3.21875,-6.3125 2.546875,-6.3125 2.15625,-6.3125 1.6875,-6.390625 1.21875,-6.59375 1.140625,-6.625 1.125,-6.625 1.109375,-6.625 1,-6.625 1,-6.546875 1,-6.390625 V -3.4375 c 0,0.171875 0,0.25 0.140625,0.25 0.078125,0 0.09375,-0.015625 0.140625,-0.078125 C 1.390625,-3.421875 1.75,-3.96875 2.5625,-3.96875 c 0.515625,0 0.765625,0.453125 0.84375,0.640625 0.15625,0.375 0.1875,0.75 0.1875,1.25 0,0.359375 0,0.953125 -0.25,1.375 C 3.109375,-0.3125 2.734375,-0.0625 2.28125,-0.0625 c -0.71875,0 -1.296875,-0.53125 -1.46875,-1.109375 0.03125,0 0.0625,0.015625 0.171875,0.015625 0.328125,0 0.5,-0.25 0.5,-0.484375 0,-0.25 -0.171875,-0.5 -0.5,-0.5 C 0.84375,-2.140625 0.5,-2.0625 0.5,-1.609375 0.5,-0.75 1.1875,0.21875 2.296875,0.21875 3.453125,0.21875 4.46875,-0.734375 4.46875,-2 Z m 0,0"
   id="path85" />
    </g>
  </g>
  <g
   clip-path="url(#clipPath9777)"
   id="g59"
   transform="matrix(0.352778,0,0,0.352778,-0.137804,0.116064)">
    <g
   fill="#000000"
   fill-opacity="1"
   id="g57">
      <g
   id="use55"
   transform="translate(30.991747,6.421)">
        <path
   d="M 1.09375,-3.421875 V -0.75 c 0,0.4375 -0.109375,0.4375 -0.78125,0.4375 V 0 c 0.359375,-0.015625 0.859375,-0.03125 1.140625,-0.03125 0.25,0 0.765625,0.015625 1.109375,0.03125 v -0.3125 c -0.671875,0 -0.78125,0 -0.78125,-0.4375 V -2.59375 C 1.78125,-3.625 2.5,-4.1875 3.125,-4.1875 c 0.640625,0 0.75,0.53125 0.75,1.109375 V -0.75 c 0,0.4375 -0.109375,0.4375 -0.78125,0.4375 V 0 c 0.34375,-0.015625 0.859375,-0.03125 1.125,-0.03125 0.25,0 0.78125,0.015625 1.109375,0.03125 v -0.3125 c -0.65625,0 -0.765625,0 -0.765625,-0.4375 v -1.84375 c 0,-1.03125 0.703125,-1.59375 1.34375,-1.59375 0.625,0 0.734375,0.53125 0.734375,1.109375 V -0.75 c 0,0.4375 -0.109375,0.4375 -0.78125,0.4375 V 0 c 0.34375,-0.015625 0.859375,-0.03125 1.125,-0.03125 0.265625,0 0.78125,0.015625 1.125,0.03125 v -0.3125 c -0.515625,0 -0.765625,0 -0.78125,-0.296875 v -1.90625 c 0,-0.859375 0,-1.15625 -0.3125,-1.515625 -0.140625,-0.171875 -0.46875,-0.375 -1.046875,-0.375 -0.828125,0 -1.28125,0.59375 -1.4375,0.984375 C 4.390625,-4.296875 3.65625,-4.40625 3.203125,-4.40625 2.46875,-4.40625 2,-3.984375 1.71875,-3.359375 V -4.40625 L 0.3125,-4.296875 v 0.3125 c 0.703125,0 0.78125,0.0625 0.78125,0.5625 z m 0,0"
   id="path89" />
      </g>
    </g>
  </g>
</g><g
     inkscape:label=""
     transform="translate(1090.2578,115.24624)"
     id="g19411"><g
   fill="#000000"
   fill-opacity="1"
   id="g28"
   transform="matrix(0.352778,0,0,0.352778,-0.137804,0.0774788)">
    <g
   id="use26"
   transform="translate(0,6.421)">
      <path
   d="m 4.578125,-3.1875 c 0,-0.796875 -0.046875,-1.59375 -0.390625,-2.328125 -0.453125,-0.96875 -1.28125,-1.125 -1.6875,-1.125 -0.609375,0 -1.328125,0.265625 -1.75,1.1875 -0.3125,0.6875 -0.359375,1.46875 -0.359375,2.265625 0,0.75 0.03125,1.640625 0.453125,2.40625 0.421875,0.796875 1.15625,1 1.640625,1 0.53125,0 1.296875,-0.203125 1.734375,-1.15625 0.3125,-0.6875 0.359375,-1.46875 0.359375,-2.25 z M 2.484375,0 C 2.09375,0 1.5,-0.25 1.328125,-1.203125 1.21875,-1.796875 1.21875,-2.71875 1.21875,-3.3125 c 0,-0.640625 0,-1.296875 0.078125,-1.828125 0.1875,-1.1875 0.9375,-1.28125 1.1875,-1.28125 0.328125,0 0.984375,0.1875 1.171875,1.171875 0.109375,0.5625 0.109375,1.3125 0.109375,1.9375 0,0.75 0,1.421875 -0.109375,2.0625 C 3.5,-0.296875 2.9375,0 2.484375,0 Z m 0,0"
   id="path50" />
    </g>
  </g>
  <g
   clip-path="url(#clipPath3222)"
   id="g34"
   transform="matrix(0.352778,0,0,0.352778,-0.137804,0.0774788)">
    <g
   fill="#000000"
   fill-opacity="1"
   id="g32">
      <g
   id="use30"
   transform="translate(4.9809999,6.421)">
        <path
   d="m 2.03125,-0.015625 c 0,-0.65625 -0.25,-1.046875 -0.640625,-1.046875 -0.328125,0 -0.53125,0.25 -0.53125,0.53125 C 0.859375,-0.265625 1.0625,0 1.390625,0 1.5,0 1.640625,-0.046875 1.734375,-0.125 1.765625,-0.15625 1.78125,-0.15625 1.78125,-0.15625 c 0.015625,0 0.015625,0 0.015625,0.140625 0,0.75 -0.34375,1.34375 -0.671875,1.671875 -0.109375,0.109375 -0.109375,0.125 -0.109375,0.15625 0,0.078125 0.046875,0.109375 0.09375,0.109375 0.109375,0 0.921875,-0.765625 0.921875,-1.9375 z m 0,0"
   id="path54" />
      </g>
    </g>
  </g>
  <g
   fill="#000000"
   fill-opacity="1"
   id="g38"
   transform="matrix(0.352778,0,0,0.352778,-0.137804,0.0774788)">
    <g
   id="use36"
   transform="translate(7.7490001,6.421)">
      <path
   d="m 4.46875,-2 c 0,-1.1875 -0.8125,-2.1875 -1.890625,-2.1875 -0.46875,0 -0.90625,0.15625 -1.265625,0.515625 V -5.625 c 0.203125,0.0625 0.53125,0.125 0.84375,0.125 1.234375,0 1.9375,-0.90625 1.9375,-1.03125 0,-0.0625 -0.03125,-0.109375 -0.109375,-0.109375 0,0 -0.03125,0 -0.078125,0.03125 C 3.703125,-6.515625 3.21875,-6.3125 2.546875,-6.3125 2.15625,-6.3125 1.6875,-6.390625 1.21875,-6.59375 1.140625,-6.625 1.125,-6.625 1.109375,-6.625 1,-6.625 1,-6.546875 1,-6.390625 V -3.4375 c 0,0.171875 0,0.25 0.140625,0.25 0.078125,0 0.09375,-0.015625 0.140625,-0.078125 C 1.390625,-3.421875 1.75,-3.96875 2.5625,-3.96875 c 0.515625,0 0.765625,0.453125 0.84375,0.640625 0.15625,0.375 0.1875,0.75 0.1875,1.25 0,0.359375 0,0.953125 -0.25,1.375 C 3.109375,-0.3125 2.734375,-0.0625 2.28125,-0.0625 c -0.71875,0 -1.296875,-0.53125 -1.46875,-1.109375 0.03125,0 0.0625,0.015625 0.171875,0.015625 0.328125,0 0.5,-0.25 0.5,-0.484375 0,-0.25 -0.171875,-0.5 -0.5,-0.5 C 0.84375,-2.140625 0.5,-2.0625 0.5,-1.609375 0.5,-0.75 1.1875,0.21875 2.296875,0.21875 3.453125,0.21875 4.46875,-0.734375 4.46875,-2 Z m 0,0"
   id="path58" />
    </g>
  </g>
  <g
   clip-path="url(#clipPath3974)"
   id="g44"
   transform="matrix(0.352778,0,0,0.352778,-0.137804,0.0774788)">
    <g
   fill="#000000"
   fill-opacity="1"
   id="g42">
      <g
   id="use40"
   transform="translate(16.047846,6.421)">
        <path
   d="M 1.09375,-3.421875 V -0.75 c 0,0.4375 -0.109375,0.4375 -0.78125,0.4375 V 0 c 0.359375,-0.015625 0.859375,-0.03125 1.140625,-0.03125 0.25,0 0.765625,0.015625 1.109375,0.03125 v -0.3125 c -0.671875,0 -0.78125,0 -0.78125,-0.4375 V -2.59375 C 1.78125,-3.625 2.5,-4.1875 3.125,-4.1875 c 0.640625,0 0.75,0.53125 0.75,1.109375 V -0.75 c 0,0.4375 -0.109375,0.4375 -0.78125,0.4375 V 0 c 0.34375,-0.015625 0.859375,-0.03125 1.125,-0.03125 0.25,0 0.78125,0.015625 1.109375,0.03125 v -0.3125 c -0.65625,0 -0.765625,0 -0.765625,-0.4375 v -1.84375 c 0,-1.03125 0.703125,-1.59375 1.34375,-1.59375 0.625,0 0.734375,0.53125 0.734375,1.109375 V -0.75 c 0,0.4375 -0.109375,0.4375 -0.78125,0.4375 V 0 c 0.34375,-0.015625 0.859375,-0.03125 1.125,-0.03125 0.265625,0 0.78125,0.015625 1.125,0.03125 v -0.3125 c -0.515625,0 -0.765625,0 -0.78125,-0.296875 v -1.90625 c 0,-0.859375 0,-1.15625 -0.3125,-1.515625 -0.140625,-0.171875 -0.46875,-0.375 -1.046875,-0.375 -0.828125,0 -1.28125,0.59375 -1.4375,0.984375 C 4.390625,-4.296875 3.65625,-4.40625 3.203125,-4.40625 2.46875,-4.40625 2,-3.984375 1.71875,-3.359375 V -4.40625 L 0.3125,-4.296875 v 0.3125 c 0.703125,0 0.78125,0.0625 0.78125,0.5625 z m 0,0"
   id="path62" />
      </g>
    </g>
  </g>
</g><g
     inkscape:label=""
     transform="translate(1122.0629,104.02093)"
     id="g21170"><g
   clip-path="url(#clipPath1812)"
   id="g23"
   transform="matrix(0.352778,0,0,0.352778,-0.314193,0.0778316)">
    <g
   fill="#000000"
   fill-opacity="1"
   id="g21">
      <g
   id="use19"
   transform="translate(0,6.4200001)">
        <path
   d="m 2.9375,-6.375 c 0,-0.25 0,-0.265625 -0.234375,-0.265625 C 2.078125,-6 1.203125,-6 0.890625,-6 v 0.3125 c 0.203125,0 0.78125,0 1.296875,-0.265625 v 5.171875 c 0,0.359375 -0.03125,0.46875 -0.921875,0.46875 h -0.3125 V 0 c 0.34375,-0.03125 1.203125,-0.03125 1.609375,-0.03125 0.390625,0 1.265625,0 1.609375,0.03125 v -0.3125 h -0.3125 c -0.90625,0 -0.921875,-0.109375 -0.921875,-0.46875 z m 0,0"
   id="path35" />
      </g>
    </g>
  </g>
  <g
   clip-path="url(#clipPath8945)"
   id="g29"
   transform="matrix(0.352778,0,0,0.352778,-0.314193,0.0778316)">
    <g
   fill="#000000"
   fill-opacity="1"
   id="g27">
      <g
   id="use25"
   transform="translate(8.2988462,6.4200001)">
        <path
   d="M 1.09375,-3.421875 V -0.75 c 0,0.4375 -0.109375,0.4375 -0.78125,0.4375 V 0 c 0.359375,-0.015625 0.859375,-0.03125 1.140625,-0.03125 0.25,0 0.765625,0.015625 1.109375,0.03125 v -0.3125 c -0.671875,0 -0.78125,0 -0.78125,-0.4375 V -2.59375 C 1.78125,-3.625 2.5,-4.1875 3.125,-4.1875 c 0.640625,0 0.75,0.53125 0.75,1.109375 V -0.75 c 0,0.4375 -0.109375,0.4375 -0.78125,0.4375 V 0 c 0.34375,-0.015625 0.859375,-0.03125 1.125,-0.03125 0.25,0 0.78125,0.015625 1.109375,0.03125 v -0.3125 c -0.65625,0 -0.765625,0 -0.765625,-0.4375 v -1.84375 c 0,-1.03125 0.703125,-1.59375 1.34375,-1.59375 0.625,0 0.734375,0.53125 0.734375,1.109375 V -0.75 c 0,0.4375 -0.109375,0.4375 -0.78125,0.4375 V 0 c 0.34375,-0.015625 0.859375,-0.03125 1.125,-0.03125 0.265625,0 0.78125,0.015625 1.125,0.03125 v -0.3125 c -0.515625,0 -0.765625,0 -0.78125,-0.296875 v -1.90625 c 0,-0.859375 0,-1.15625 -0.3125,-1.515625 -0.140625,-0.171875 -0.46875,-0.375 -1.046875,-0.375 -0.828125,0 -1.28125,0.59375 -1.4375,0.984375 C 4.390625,-4.296875 3.65625,-4.40625 3.203125,-4.40625 2.46875,-4.40625 2,-3.984375 1.71875,-3.359375 V -4.40625 L 0.3125,-4.296875 v 0.3125 c 0.703125,0 0.78125,0.0625 0.78125,0.5625 z m 0,0"
   id="path39" />
      </g>
    </g>
  </g>
</g><g
     inkscape:label=""
     transform="translate(1230.0109,108.69859)"
     id="g22969"><g
   fill="#000000"
   fill-opacity="1"
   id="g22945"
   transform="matrix(0.352778,0,0,0.352778,-0.314193,0.0774788)">
    <g
   id="g22943"
   transform="translate(0,6.421)">
      <path
   d="m 2.9375,-6.375 c 0,-0.25 0,-0.265625 -0.234375,-0.265625 C 2.078125,-6 1.203125,-6 0.890625,-6 v 0.3125 c 0.203125,0 0.78125,0 1.296875,-0.265625 v 5.171875 c 0,0.359375 -0.03125,0.46875 -0.921875,0.46875 h -0.3125 V 0 c 0.34375,-0.03125 1.203125,-0.03125 1.609375,-0.03125 0.390625,0 1.265625,0 1.609375,0.03125 v -0.3125 h -0.3125 c -0.90625,0 -0.921875,-0.109375 -0.921875,-0.46875 z m 0,0"
   id="path22941" />
    </g>
  </g>
  <g
   clip-path="url(#clipPath5958)"
   id="g22953"
   transform="matrix(0.352778,0,0,0.352778,-0.314193,0.0774788)">
    <g
   fill="#000000"
   fill-opacity="1"
   id="g22951">
      <g
   id="g22949"
   transform="translate(4.9809999,6.421)">
        <path
   d="m 2.03125,-0.015625 c 0,-0.65625 -0.25,-1.046875 -0.640625,-1.046875 -0.328125,0 -0.53125,0.25 -0.53125,0.53125 C 0.859375,-0.265625 1.0625,0 1.390625,0 1.5,0 1.640625,-0.046875 1.734375,-0.125 1.765625,-0.15625 1.78125,-0.15625 1.78125,-0.15625 c 0.015625,0 0.015625,0 0.015625,0.140625 0,0.75 -0.34375,1.34375 -0.671875,1.671875 -0.109375,0.109375 -0.109375,0.125 -0.109375,0.15625 0,0.078125 0.046875,0.109375 0.09375,0.109375 0.109375,0 0.921875,-0.765625 0.921875,-1.9375 z m 0,0"
   id="path22947" />
      </g>
    </g>
  </g>
  <g
   fill="#000000"
   fill-opacity="1"
   id="g22959"
   transform="matrix(0.352778,0,0,0.352778,-0.314193,0.0774788)">
    <g
   id="g22957"
   transform="translate(7.7490001,6.421)">
      <path
   d="m 4.46875,-2 c 0,-1.1875 -0.8125,-2.1875 -1.890625,-2.1875 -0.46875,0 -0.90625,0.15625 -1.265625,0.515625 V -5.625 c 0.203125,0.0625 0.53125,0.125 0.84375,0.125 1.234375,0 1.9375,-0.90625 1.9375,-1.03125 0,-0.0625 -0.03125,-0.109375 -0.109375,-0.109375 0,0 -0.03125,0 -0.078125,0.03125 C 3.703125,-6.515625 3.21875,-6.3125 2.546875,-6.3125 2.15625,-6.3125 1.6875,-6.390625 1.21875,-6.59375 1.140625,-6.625 1.125,-6.625 1.109375,-6.625 1,-6.625 1,-6.546875 1,-6.390625 V -3.4375 c 0,0.171875 0,0.25 0.140625,0.25 0.078125,0 0.09375,-0.015625 0.140625,-0.078125 C 1.390625,-3.421875 1.75,-3.96875 2.5625,-3.96875 c 0.515625,0 0.765625,0.453125 0.84375,0.640625 0.15625,0.375 0.1875,0.75 0.1875,1.25 0,0.359375 0,0.953125 -0.25,1.375 C 3.109375,-0.3125 2.734375,-0.0625 2.28125,-0.0625 c -0.71875,0 -1.296875,-0.53125 -1.46875,-1.109375 0.03125,0 0.0625,0.015625 0.171875,0.015625 0.328125,0 0.5,-0.25 0.5,-0.484375 0,-0.25 -0.171875,-0.5 -0.5,-0.5 C 0.84375,-2.140625 0.5,-2.0625 0.5,-1.609375 0.5,-0.75 1.1875,0.21875 2.296875,0.21875 3.453125,0.21875 4.46875,-0.734375 4.46875,-2 Z m 0,0"
   id="path22955" />
    </g>
  </g>
  <g
   clip-path="url(#clipPath2343)"
   id="g22967"
   transform="matrix(0.352778,0,0,0.352778,-0.314193,0.0774788)">
    <g
   fill="#000000"
   fill-opacity="1"
   id="g22965">
      <g
   id="g22963"
   transform="translate(16.047846,6.421)">
        <path
   d="M 1.09375,-3.421875 V -0.75 c 0,0.4375 -0.109375,0.4375 -0.78125,0.4375 V 0 c 0.359375,-0.015625 0.859375,-0.03125 1.140625,-0.03125 0.25,0 0.765625,0.015625 1.109375,0.03125 v -0.3125 c -0.671875,0 -0.78125,0 -0.78125,-0.4375 V -2.59375 C 1.78125,-3.625 2.5,-4.1875 3.125,-4.1875 c 0.640625,0 0.75,0.53125 0.75,1.109375 V -0.75 c 0,0.4375 -0.109375,0.4375 -0.78125,0.4375 V 0 c 0.34375,-0.015625 0.859375,-0.03125 1.125,-0.03125 0.25,0 0.78125,0.015625 1.109375,0.03125 v -0.3125 c -0.65625,0 -0.765625,0 -0.765625,-0.4375 v -1.84375 c 0,-1.03125 0.703125,-1.59375 1.34375,-1.59375 0.625,0 0.734375,0.53125 0.734375,1.109375 V -0.75 c 0,0.4375 -0.109375,0.4375 -0.78125,0.4375 V 0 c 0.34375,-0.015625 0.859375,-0.03125 1.125,-0.03125 0.265625,0 0.78125,0.015625 1.125,0.03125 v -0.3125 c -0.515625,0 -0.765625,0 -0.78125,-0.296875 v -1.90625 c 0,-0.859375 0,-1.15625 -0.3125,-1.515625 -0.140625,-0.171875 -0.46875,-0.375 -1.046875,-0.375 -0.828125,0 -1.28125,0.59375 -1.4375,0.984375 C 4.390625,-4.296875 3.65625,-4.40625 3.203125,-4.40625 2.46875,-4.40625 2,-3.984375 1.71875,-3.359375 V -4.40625 L 0.3125,-4.296875 v 0.3125 c 0.703125,0 0.78125,0.0625 0.78125,0.5625 z m 0,0"
   id="path22961" />
      </g>
    </g>
  </g>
</g><g
     id="g12137"
     transform="matrix(1.1297735,0,0,1.1297735,888.04996,92.038756)"><g
       id="g21876"
       transform="translate(-0.69635993,11.476009)"><g
         id="g1735"
         transform="translate(-3.7509289,17.191827)"><path
           style="opacity:0.95;fill:none;stroke:#000000;stroke-width:0.2;stroke-linejoin:bevel;stroke-dasharray:none;marker-start:url(#marker21932-4)"
           d="m 197.32735,41.645545 -6.12977,-4.23038"
           id="path7007-1-6"
           transform="translate(-0.143211,0.214817)"
           sodipodi:nodetypes="cc" /><path
           style="fill:#00d4ff;fill-opacity:0.898305;stroke:#000000;stroke-width:0.195775;stroke-linejoin:bevel;stroke-dasharray:none;stroke-dashoffset:0;stroke-opacity:1;marker-end:url(#Arrow2-1-8-1-1-4)"
           d="m 191.04094,37.704231 -0.19498,-9.098238"
           id="path34840-5-0-8-2-0"
           sodipodi:nodetypes="cc" /><path
           style="fill:#00d4ff;fill-opacity:0.898305;stroke:#000000;stroke-width:0.196;stroke-linejoin:bevel;stroke-dasharray:none;stroke-dashoffset:0;stroke-opacity:1;marker-end:url(#Arrow2-1-8-1-1-4-8)"
           d="m 191.13666,37.602216 9.30986,-1.037174"
           id="path34840-5-0-8-2-0-8"
           sodipodi:nodetypes="cc" /><g
           inkscape:label=""
           transform="translate(197.68847,33.133743)"
           id="g9205"><g
             fill="#000000"
             fill-opacity="1"
             id="g9195"
             transform="matrix(0.352778,0,0,0.352778,-0.104731,0.0410104)"><g
               id="g9193"
               transform="translate(0,4.29)"><path
                 d="M 3.328125,-3.015625 C 3.390625,-3.265625 3.625,-4.1875 4.3125,-4.1875 c 0.046875,0 0.296875,0 0.5,0.125 C 4.53125,-4 4.34375,-3.765625 4.34375,-3.515625 c 0,0.15625 0.109375,0.34375 0.375,0.34375 0.21875,0 0.53125,-0.171875 0.53125,-0.578125 0,-0.515625 -0.578125,-0.65625 -0.921875,-0.65625 -0.578125,0 -0.921875,0.53125 -1.046875,0.75 -0.25,-0.65625 -0.78125,-0.75 -1.078125,-0.75 -1.03125,0 -1.609375,1.28125 -1.609375,1.53125 0,0.109375 0.109375,0.109375 0.125,0.109375 0.078125,0 0.109375,-0.03125 0.125,-0.109375 0.34375,-1.0625 1,-1.3125 1.34375,-1.3125 0.1875,0 0.53125,0.09375 0.53125,0.671875 0,0.3125 -0.171875,0.96875 -0.53125,2.375 -0.15625,0.609375 -0.515625,1.03125 -0.953125,1.03125 -0.0625,0 -0.28125,0 -0.5,-0.125 0.25,-0.0625 0.46875,-0.265625 0.46875,-0.546875 0,-0.265625 -0.21875,-0.34375 -0.359375,-0.34375 -0.3125,0 -0.546875,0.25 -0.546875,0.578125 0,0.453125 0.484375,0.65625 0.921875,0.65625 0.671875,0 1.03125,-0.703125 1.046875,-0.75 0.125,0.359375 0.484375,0.75 1.078125,0.75 1.03125,0 1.59375,-1.28125 1.59375,-1.53125 0,-0.109375 -0.078125,-0.109375 -0.109375,-0.109375 -0.09375,0 -0.109375,0.046875 -0.140625,0.109375 -0.328125,1.078125 -1,1.3125 -1.3125,1.3125 -0.390625,0 -0.546875,-0.3125 -0.546875,-0.65625 0,-0.21875 0.046875,-0.4375 0.15625,-0.875 z m 0,0"
                 id="path9191" /></g></g><g
             clip-path="url(#clipPath4896)"
             id="g9203"
             transform="matrix(0.352778,0,0,0.352778,-0.104731,0.0410104)"><g
               fill="#000000"
               fill-opacity="1"
               id="g9201"><g
                 id="g9199"
                 transform="translate(5.6939998,5.7839999)"><path
                   d="m 2.328125,-4.4375 c 0,-0.1875 0,-0.1875 -0.203125,-0.1875 -0.453125,0.4375 -1.078125,0.4375 -1.359375,0.4375 v 0.25 c 0.15625,0 0.625,0 1,-0.1875 v 3.546875 c 0,0.234375 0,0.328125 -0.6875,0.328125 H 0.8125 V 0 c 0.125,0 0.984375,-0.03125 1.234375,-0.03125 0.21875,0 1.09375,0.03125 1.25,0.03125 V -0.25 H 3.03125 c -0.703125,0 -0.703125,-0.09375 -0.703125,-0.328125 z m 0,0"
                   id="path9197" /></g></g></g></g><g
           inkscape:label=""
           transform="translate(192.75068,41.464264)"
           id="g10293"><g
             fill="#000000"
             fill-opacity="1"
             id="g10283"
             transform="matrix(0.352778,0,0,0.352778,-0.104731,0.0410104)"><g
               id="g10281"
               transform="translate(0,4.29)"><path
                 d="M 3.328125,-3.015625 C 3.390625,-3.265625 3.625,-4.1875 4.3125,-4.1875 c 0.046875,0 0.296875,0 0.5,0.125 C 4.53125,-4 4.34375,-3.765625 4.34375,-3.515625 c 0,0.15625 0.109375,0.34375 0.375,0.34375 0.21875,0 0.53125,-0.171875 0.53125,-0.578125 0,-0.515625 -0.578125,-0.65625 -0.921875,-0.65625 -0.578125,0 -0.921875,0.53125 -1.046875,0.75 -0.25,-0.65625 -0.78125,-0.75 -1.078125,-0.75 -1.03125,0 -1.609375,1.28125 -1.609375,1.53125 0,0.109375 0.109375,0.109375 0.125,0.109375 0.078125,0 0.109375,-0.03125 0.125,-0.109375 0.34375,-1.0625 1,-1.3125 1.34375,-1.3125 0.1875,0 0.53125,0.09375 0.53125,0.671875 0,0.3125 -0.171875,0.96875 -0.53125,2.375 -0.15625,0.609375 -0.515625,1.03125 -0.953125,1.03125 -0.0625,0 -0.28125,0 -0.5,-0.125 0.25,-0.0625 0.46875,-0.265625 0.46875,-0.546875 0,-0.265625 -0.21875,-0.34375 -0.359375,-0.34375 -0.3125,0 -0.546875,0.25 -0.546875,0.578125 0,0.453125 0.484375,0.65625 0.921875,0.65625 0.671875,0 1.03125,-0.703125 1.046875,-0.75 0.125,0.359375 0.484375,0.75 1.078125,0.75 1.03125,0 1.59375,-1.28125 1.59375,-1.53125 0,-0.109375 -0.078125,-0.109375 -0.109375,-0.109375 -0.09375,0 -0.109375,0.046875 -0.140625,0.109375 -0.328125,1.078125 -1,1.3125 -1.3125,1.3125 -0.390625,0 -0.546875,-0.3125 -0.546875,-0.65625 0,-0.21875 0.046875,-0.4375 0.15625,-0.875 z m 0,0"
                 id="path10279" /></g></g><g
             clip-path="url(#clipPath8761)"
             id="g10291"
             transform="matrix(0.352778,0,0,0.352778,-0.104731,0.0410104)"><g
               fill="#000000"
               fill-opacity="1"
               id="g10289"><g
                 id="g10287"
                 transform="translate(5.6939998,5.7839999)"><path
                   d="M 3.515625,-1.265625 H 3.28125 c -0.015625,0.15625 -0.09375,0.5625 -0.1875,0.625 C 3.046875,-0.59375 2.515625,-0.59375 2.40625,-0.59375 H 1.125 c 0.734375,-0.640625 0.984375,-0.84375 1.390625,-1.171875 0.515625,-0.40625 1,-0.84375 1,-1.5 0,-0.84375 -0.734375,-1.359375 -1.625,-1.359375 -0.859375,0 -1.453125,0.609375 -1.453125,1.25 0,0.34375 0.296875,0.390625 0.375,0.390625 0.15625,0 0.359375,-0.125 0.359375,-0.375 0,-0.125 -0.046875,-0.375 -0.40625,-0.375 C 0.984375,-4.21875 1.453125,-4.375 1.78125,-4.375 c 0.703125,0 1.0625,0.546875 1.0625,1.109375 0,0.609375 -0.4375,1.078125 -0.65625,1.328125 L 0.515625,-0.265625 C 0.4375,-0.203125 0.4375,-0.1875 0.4375,0 h 2.875 z m 0,0"
                   id="path10285" /></g></g></g></g><g
           inkscape:label=""
           transform="translate(191.9416,26.232277)"
           id="g11401"><g
             fill="#000000"
             fill-opacity="1"
             id="g11391"
             transform="matrix(0.352778,0,0,0.352778,-0.104731,0.0410104)"><g
               id="g11389"
               transform="translate(0,4.29)"><path
                 d="M 3.328125,-3.015625 C 3.390625,-3.265625 3.625,-4.1875 4.3125,-4.1875 c 0.046875,0 0.296875,0 0.5,0.125 C 4.53125,-4 4.34375,-3.765625 4.34375,-3.515625 c 0,0.15625 0.109375,0.34375 0.375,0.34375 0.21875,0 0.53125,-0.171875 0.53125,-0.578125 0,-0.515625 -0.578125,-0.65625 -0.921875,-0.65625 -0.578125,0 -0.921875,0.53125 -1.046875,0.75 -0.25,-0.65625 -0.78125,-0.75 -1.078125,-0.75 -1.03125,0 -1.609375,1.28125 -1.609375,1.53125 0,0.109375 0.109375,0.109375 0.125,0.109375 0.078125,0 0.109375,-0.03125 0.125,-0.109375 0.34375,-1.0625 1,-1.3125 1.34375,-1.3125 0.1875,0 0.53125,0.09375 0.53125,0.671875 0,0.3125 -0.171875,0.96875 -0.53125,2.375 -0.15625,0.609375 -0.515625,1.03125 -0.953125,1.03125 -0.0625,0 -0.28125,0 -0.5,-0.125 0.25,-0.0625 0.46875,-0.265625 0.46875,-0.546875 0,-0.265625 -0.21875,-0.34375 -0.359375,-0.34375 -0.3125,0 -0.546875,0.25 -0.546875,0.578125 0,0.453125 0.484375,0.65625 0.921875,0.65625 0.671875,0 1.03125,-0.703125 1.046875,-0.75 0.125,0.359375 0.484375,0.75 1.078125,0.75 1.03125,0 1.59375,-1.28125 1.59375,-1.53125 0,-0.109375 -0.078125,-0.109375 -0.109375,-0.109375 -0.09375,0 -0.109375,0.046875 -0.140625,0.109375 -0.328125,1.078125 -1,1.3125 -1.3125,1.3125 -0.390625,0 -0.546875,-0.3125 -0.546875,-0.65625 0,-0.21875 0.046875,-0.4375 0.15625,-0.875 z m 0,0"
                 id="path11387" /></g></g><g
             clip-path="url(#clipPath3129)"
             id="g11399"
             transform="matrix(0.352778,0,0,0.352778,-0.104731,0.0410104)"><g
               fill="#000000"
               fill-opacity="1"
               id="g11397"><g
                 id="g11395"
                 transform="translate(5.6939998,5.7839999)"><path
                   d="m 1.90625,-2.328125 c 0.546875,0 0.9375,0.375 0.9375,1.125 0,0.859375 -0.515625,1.125 -0.90625,1.125 -0.28125,0 -0.90625,-0.078125 -1.1875,-0.5 0.328125,0 0.40625,-0.234375 0.40625,-0.390625 0,-0.21875 -0.171875,-0.375 -0.390625,-0.375 -0.1875,0 -0.390625,0.125 -0.390625,0.40625 0,0.65625 0.71875,1.078125 1.5625,1.078125 0.96875,0 1.640625,-0.65625 1.640625,-1.34375 0,-0.546875 -0.4375,-1.09375 -1.203125,-1.25 0.71875,-0.265625 0.984375,-0.78125 0.984375,-1.21875 0,-0.546875 -0.625,-0.953125 -1.40625,-0.953125 -0.765625,0 -1.359375,0.375 -1.359375,0.9375 0,0.234375 0.15625,0.359375 0.359375,0.359375 0.21875,0 0.359375,-0.15625 0.359375,-0.34375 0,-0.203125 -0.140625,-0.359375 -0.359375,-0.375 0.25,-0.296875 0.71875,-0.375 0.984375,-0.375 0.3125,0 0.75,0.15625 0.75,0.75 0,0.296875 -0.09375,0.625 -0.28125,0.828125 -0.21875,0.265625 -0.421875,0.28125 -0.765625,0.3125 -0.171875,0.015625 -0.1875,0.015625 -0.21875,0.015625 -0.015625,0 -0.078125,0.015625 -0.078125,0.09375 0,0.09375 0.0625,0.09375 0.1875,0.09375 z m 0,0"
                   id="path11393" /></g></g></g></g></g></g></g></svg>
